<?xml version="1.0" encoding="UTF-8"?>
<svg width="200px" height="129px" viewBox="0 0 200 129" version="1.1" xmlns="http://www.w3.org/2000/svg" xmlns:xlink="http://www.w3.org/1999/xlink">
    <!-- Generator: Sketch 45.1 (43504) - http://www.bohemiancoding.com/sketch -->
    <title>flyer</title>
    <desc>Created with Sketch.</desc>
    <defs></defs>
    <g id="Mobile-wireframes" stroke="none" stroke-width="1" fill="none" fill-rule="evenodd">
        <g id="flyer">
            <rect id="Rectangle-27" fill="#FFFFFF" x="0" y="0" width="200" height="128.837891"></rect>
            <circle id="Oval-5" fill="#FF5E5B" cx="29" cy="9" r="3"></circle>
            <circle id="Oval-5-Copy" fill="#FF5E5B" cx="171" cy="9" r="3"></circle>
            <rect id="Rectangle-28" fill="#00A3DF" x="0" y="16.3937325" width="200" height="21.9824219"></rect>
            <path d="M26.5,56 L173.503401,56" id="Line-3" stroke="#EAE8E8" stroke-width="2" stroke-linecap="square"></path>
            <path d="M26.5,70 L173.503401,70" id="Line-3-Copy" stroke="#EAE8E8" stroke-width="2" stroke-linecap="square"></path>
            <path d="M26.5,84 L173.503401,84" id="Line-3-Copy-2" stroke="#EAE8E8" stroke-width="2" stroke-linecap="square"></path>
            <path d="M26.5,98 L173.503401,98" id="Line-3-Copy-3" stroke="#EAE8E8" stroke-width="2" stroke-linecap="square"></path>
            <g id="OneLove_Horizontal_Blue" transform="translate(81.000000, 111.000000)" fill="#2697C8">
                <path d="M5.45174069,0.0455739183 L5.41166707,0.0843903245 L5.4044381,0.0774756611 L4.68602028,0.775463792 L3.93420778,0.0455739183 L1.48798843,0.0455739183 L0,1.49097431 L0,3.61401172 L4.6930921,8.171875 L9.38610562,3.61401172 L9.38610562,1.49097431 L7.89803861,0.0455739183 L5.45174069,0.0455739183 Z M4.9008463,0.990368389 L5.57526172,0.335282602 L7.5890003,0.335282602 L5.90771559,1.96832181 L4.9008463,0.990368389 Z M1.762532,0.335282602 L3.80487215,0.335282602 L4.47182287,0.983532302 L3.45088852,1.97507933 L1.762532,0.335282602 Z M6.11821995,2.17309014 L7.89238116,0.449688852 L8.92997356,1.45750105 L7.15589093,3.18090234 L6.11821995,2.17309014 Z M0.438609675,1.47455198 L1.47628065,0.466661208 L3.24022701,2.17976908 L2.20271319,3.18758128 L0.438609675,1.47455198 Z M3.66202148,2.17976908 L4.68248437,1.1880649 L5.69681836,2.17309014 L4.67564829,3.16463717 L3.66202148,2.17976908 Z M7.36663101,3.38551352 L9.08806791,1.71357933 L9.08806791,3.49418374 L8.28337395,4.27577644 L7.36663101,3.38551352 Z M0.297644832,3.49418374 L0.297644832,1.74705258 L1.99181596,3.39211388 L1.09235968,4.26571875 L0.297644832,3.49418374 Z M4.88638837,3.36948407 L5.90771559,2.37793705 L6.94515084,3.38551352 L5.92413792,4.3772177 L4.88638837,3.36948407 Z M2.41329612,3.39211388 L3.45088852,2.38453741 L4.46498678,3.36948407 L3.42739438,4.3772177 L2.41329612,3.39211388 Z M3.63821304,4.5817503 L4.67564829,3.57417383 L5.71331926,4.5817503 L4.67564829,5.58979823 L3.63821304,4.5817503 Z M6.13472085,4.5817503 L7.15589093,3.59036043 L8.07231956,4.48030904 L7.05154237,5.47217037 L6.13472085,4.5817503 Z M1.30294261,4.47048708 L2.20271319,3.59711794 L3.21657572,4.5817503 L2.31727659,5.45551232 L1.30294261,4.47048708 Z M4.88638837,5.79456656 L5.92413792,4.78659721 L6.84064513,5.67686013 L5.80297416,6.68459375 L4.88638837,5.79456656 Z M2.52817383,5.66035922 L3.42739438,4.78659721 L4.46498678,5.79456656 L3.5658448,6.6679357 L2.52817383,5.66035922 Z M3.77650631,6.87270403 L4.67564829,5.99917773 L5.59239123,6.88936208 L4.69332782,7.76288837 L3.77650631,6.87270403 L3.77650631,6.87270403 Z" id="Fill-1"></path>
                <path d="M13.1697623,6.71940279 C14.1815819,6.71940279 14.8970924,5.93922446 14.8970924,4.95388492 C14.8970924,3.9603735 14.1897538,3.18860276 13.1697623,3.18860276 C12.1662718,3.18860276 11.4424322,3.96862395 11.4424322,4.95388492 C11.4424322,5.94755349 12.1580213,6.71940279 13.1697623,6.71940279 L13.1697623,6.71940279 Z M13.1697623,6.44831656 C12.3471531,6.44831656 11.7631783,5.8160963 11.7631783,4.95388492 C11.7631783,4.09992398 12.3471531,3.45945328 13.1697623,3.45945328 C14.0005434,3.45945328 14.5763463,4.09992398 14.5763463,4.95388492 C14.5763463,5.8160963 14.0005434,6.44831656 13.1697623,6.44831656 L13.1697623,6.44831656 Z M16.4269617,3.24604162 L15.538506,3.24604162 L15.538506,3.51704928 L16.1390602,3.51704928 L16.1390602,6.3908777 L15.538506,6.3908777 L15.538506,6.66180679 L17.0356878,6.66180679 L17.0356878,6.3908777 L16.443384,6.3908777 L16.443384,4.21495883 C16.780631,3.80440069 17.2413205,3.4677823 17.7430264,3.4677823 C18.0884453,3.4677823 18.3188293,3.59916091 18.4339428,3.83724534 C18.5079611,3.98512485 18.5325553,4.17402088 18.5325553,4.40385487 L18.5325553,6.3908777 L17.9404087,6.3908777 L17.9404087,6.66180679 L19.4374333,6.66180679 L19.4374333,6.3908777 L18.8370362,6.3908777 L18.8370362,4.36275977 C18.8370362,4.0836588 18.7876121,3.82899489 18.6807491,3.64017743 C18.5243834,3.36924835 18.2365605,3.18860276 17.7841215,3.18860276 C17.2494923,3.18860276 16.7477864,3.54989393 16.4269617,3.93585787 L16.4269617,3.24604162 Z M22.9991136,4.98680814 C23.0155359,4.93754117 23.0237078,4.87185186 23.0237078,4.78981881 C23.0237078,3.9522802 22.4807495,3.18860276 21.5019318,3.18860276 C20.5560373,3.18860276 19.8815433,3.97695297 19.8815433,4.94571304 C19.8815433,6.02141466 20.5888819,6.71940279 21.6336247,6.71940279 C22.0777347,6.71940279 22.5055009,6.58802419 22.8346546,6.36620493 L22.8591702,6.05418074 C22.4972505,6.29234375 22.1271588,6.44831656 21.6664694,6.44831656 C20.8029222,6.44831656 20.2271193,5.93922446 20.1941175,4.98680814 L22.9991136,4.98680814 Z M21.4774162,3.45945328 C22.2670236,3.45945328 22.6782103,4.0179695 22.711055,4.72412951 L20.2023679,4.72412951 C20.2765434,3.96862395 20.8193445,3.45945328 21.4774162,3.45945328 L21.4774162,3.45945328 Z M23.8214871,6.66180679 L26.0916968,6.66180679 L26.0916968,6.3908777 L25.1211295,6.3908777 L25.1211295,1.30828576 L24.9977656,1.30828576 L23.8214871,1.64490415 L23.8874121,1.91591181 L24.800462,1.65323317 L24.800462,6.3908777 L23.8214871,6.3908777 L23.8214871,6.66180679 Z M28.4360035,6.71940279 C29.4477444,6.71940279 30.1631764,5.93922446 30.1631764,4.95388492 C30.1631764,3.9603735 29.4559949,3.18860276 28.4360035,3.18860276 C27.4324343,3.18860276 26.7085948,3.96862395 26.7085948,4.95388492 C26.7085948,5.94755349 27.4242625,6.71940279 28.4360035,6.71940279 L28.4360035,6.71940279 Z M28.4360035,6.44831656 C27.6134728,6.44831656 27.0294195,5.8160963 27.0294195,4.95388492 C27.0294195,4.09992398 27.6134728,3.45945328 28.4360035,3.45945328 C29.266706,3.45945328 29.8425089,4.09992398 29.8425089,4.95388492 C29.8425089,5.8160963 29.266706,6.44831656 28.4360035,6.44831656 L28.4360035,6.44831656 Z M32.2935213,6.80143585 L32.4170424,6.80143585 L33.8729719,3.51704928 L34.3664274,3.51704928 L34.3664274,3.24604162 L32.9105765,3.24604162 L32.9105765,3.51704928 L33.5438968,3.51704928 L32.3677754,6.30051562 L31.1831678,3.51704928 L31.8083163,3.51704928 L31.8083163,3.24604162 L30.3442148,3.24604162 L30.3442148,3.51704928 L30.8377489,3.51704928 L32.2935213,6.80143585 Z M37.6485353,4.98680814 C37.6648005,4.93754117 37.6732081,4.87185186 37.6732081,4.78981881 C37.6732081,3.9522802 37.1303284,3.18860276 36.1514321,3.18860276 C35.2056161,3.18860276 34.5310436,3.97695297 34.5310436,4.94571304 C34.5310436,6.02141466 35.2383036,6.71940279 36.2830464,6.71940279 C36.727235,6.71940279 37.1549226,6.58802419 37.4838406,6.36620493 L37.5085919,6.05418074 C37.1467508,6.29234375 36.7765805,6.44831656 36.3159697,6.44831656 C35.4521867,6.44831656 34.876541,5.93922446 34.8436178,4.98680814 L37.6485353,4.98680814 Z M36.1267593,3.45945328 C36.9163667,3.45945328 37.3277106,4.0179695 37.3605553,4.72412951 L34.8517897,4.72412951 C34.925808,3.96862395 35.4686091,3.45945328 36.1267593,3.45945328 L36.1267593,3.45945328 Z" id="Fill-2"></path>
            </g>
        </g>
    </g>
</svg>