<?xml version="1.0" encoding="UTF-8"?>
<svg viewBox="0 0 1079 466" version="1.1" xmlns="http://www.w3.org/2000/svg" xmlns:xlink="http://www.w3.org/1999/xlink">
    <!-- Generator: Sketch 45.1 (43504) - http://www.bohemiancoding.com/sketch -->
    <title>love path desktop</title>
    <desc>Created with Sketch.</desc>
    <defs></defs>
    <g id="Mobile-wireframes" stroke="none" stroke-width="1" fill="none" fill-rule="evenodd">
        <g id="--desktop-menu" transform="translate(-161.000000, -1949.000000)">
            <g id="love-path-desktop" transform="translate(161.000000, 1949.000000)">
                <path d="M2,64.40625 L177.520836,64.40625 C186.357392,64.40625 193.520836,71.569694 193.520836,80.40625 L193.520836,241 C193.520836,254.254834 204.266002,265 217.520836,265 L248.420565,265 C257.257121,265 264.420565,272.163444 264.420565,281 L264.420565,441.453125 C264.420565,454.707959 275.165731,465.453125 288.420565,465.453125 L649.549198,465.453125 C662.804032,465.453125 673.549198,454.707959 673.549198,441.453125 L673.549198,313.289063 C673.549198,304.452507 680.712642,297.289063 689.549198,297.289063 L1037,297.289063 C1050.25483,297.289063 1061,286.543897 1061,273.289063 L1061,17 L1053,17 L1053,273.289063 C1053,282.125619 1045.83656,289.289063 1037,289.289063 L689.549198,289.289063 C676.294364,289.289063 665.549198,300.034229 665.549198,313.289063 L665.549198,441.453125 C665.549198,450.289681 658.385754,457.453125 649.549198,457.453125 L288.420565,457.453125 C279.584009,457.453125 272.420565,450.289681 272.420565,441.453125 L272.420565,281 C272.420565,267.745166 261.675399,257 248.420565,257 L217.520836,257 C208.68428,257 201.520836,249.836556 201.520836,241 L201.520836,80.40625 C201.520836,67.151416 190.77567,56.40625 177.520836,56.40625 L2,56.40625 L2,64.40625 Z" id="Path-2" fill="#252525" fill-rule="nonzero" opacity="0.12"></path>
                <polygon id="Path-Copy" fill="#69D4C5" points="1061.34971 0 1061.17808 0.16625 1061.14712 0.136634615 1058.07014 3.12610577 1054.85014 0 1044.37303 0 1038 6.190625 1038 15.2835577 1058.10043 34.8048077 1078.20053 15.2835577 1078.20053 6.190625 1071.82716 0"></polygon>
                <circle id="Oval-3" fill="#57BCE9" cx="15" cy="60" r="15"></circle>
            </g>
        </g>
    </g>
</svg>
