<?xml version="1.0" encoding="UTF-8"?>
<svg viewBox="0 0 301 1788" version="1.1" xmlns="http://www.w3.org/2000/svg" xmlns:xlink="http://www.w3.org/1999/xlink">
    <!-- Generator: Sketch 45.1 (43504) - http://www.bohemiancoding.com/sketch -->
    <title>love path mobile</title>
    <desc>Created with Sketch.</desc>
    <defs></defs>
    <g id="Mobile-wireframes" stroke="none" stroke-width="1" fill="none" fill-rule="evenodd">
        <g id="love-path-mobile">
            <path d="M232.882812,12 L232.882812,317.992188 C232.882812,326.828743 225.719368,333.992188 216.882812,333.992188 L56.2890625,333.992188 C43.0342285,333.992188 32.2890625,344.737354 32.2890625,357.992188 L32.2890625,436.203414 C32.2890625,449.458248 43.0342285,460.203414 56.2890625,460.203414 L260.289063,460.203414 C269.125619,460.203414 276.289063,467.366858 276.289063,476.203414 L276.289063,1105.00579 C276.289063,1113.84235 269.125619,1121.00579 260.289063,1121.00579 L24,1121.00579 C10.745166,1121.00579 0,1131.75096 0,1145.00579 L0,1751.00311 C0,1764.25794 10.745166,1775.00311 24,1775.00311 L280.289063,1775.00311 L280.289063,1767.00311 L24,1767.00311 C15.163444,1767.00311 8,1759.83966 8,1751.00311 L8,1145.00579 C8,1136.16924 15.163444,1129.00579 24,1129.00579 L260.289063,1129.00579 C273.543897,1129.00579 284.289063,1118.26063 284.289063,1105.00579 L284.289063,476.203414 C284.289063,462.94858 273.543897,452.203414 260.289063,452.203414 L56.2890625,452.203414 C47.4525065,452.203414 40.2890625,445.03997 40.2890625,436.203414 L40.2890625,357.992188 C40.2890625,349.155632 47.4525065,341.992188 56.2890625,341.992188 L216.882812,341.992188 C230.137646,341.992188 240.882812,331.247021 240.882812,317.992188 L240.882812,12 L232.882812,12 Z" id="Path-2" fill="#252525" fill-rule="nonzero" opacity="0.12"></path>
            <circle id="Oval-3" fill="#57BCE9" cx="236" cy="15" r="15"></circle>
            <polygon id="Path-Copy" fill="#69D4C5" points="283.349712 1753 283.178077 1753.16625 280.070144 1756.12611 276.850144 1753 266.373029 1753 260 1759.19062 260 1768.28356 280.100433 1787.80481 300.200529 1768.28356 300.200529 1759.19062 293.827163 1753"></polygon>
        </g>
    </g>
</svg>
