<?xml version="1.0" encoding="UTF-8"?>
<svg width="437px" height="256px" viewBox="0 0 437 256" version="1.1" xmlns="http://www.w3.org/2000/svg" xmlns:xlink="http://www.w3.org/1999/xlink">
    <!-- Generator: Sketch 46.1 (44463) - http://www.bohemiancoding.com/sketch -->
    <title>Membership card</title>
    <desc>Created with Sketch.</desc>
    <defs>
        <rect id="path-1" x="0" y="0" width="436.775919" height="255.726945" rx="6"></rect>
    </defs>
    <g id="Symbols" stroke="none" stroke-width="1" fill="none" fill-rule="evenodd">
        <g id="Membership-card">
            <g id="Rectangle-2">
                <mask id="mask-2" fill="white">
                    <use xlink:href="#path-1"></use>
                </mask>
                <use id="Mask" fill="#00A3DF" xlink:href="#path-1"></use>
                <polygon fill="#1A596A" mask="url(#mask-2)" points="228.322763 -11.2655042 447.40307 -11.2655042 447.40307 272 92 272"></polygon>
            </g>
            <g id="OneLove_Horizontal_Blue" transform="translate(22.531008, 22.531008)" fill="#FFFFFF">
                <path d="M26.3046273,0.219893976 L26.1112723,0.407182983 L26.0763925,0.373819759 L22.6100294,3.74160974 L18.982537,0.219893976 L7.17953832,0.219893976 L0,7.19394516 L0,17.4375923 L22.6441509,39.4292647 L45.2879226,17.4375923 L45.2879226,7.19394516 L38.1080052,0.219893976 L26.3046273,0.219893976 Z M23.6465641,4.77852357 L26.9006158,1.61773723 L36.6168965,1.61773723 L28.5047045,9.497145 L23.6465641,4.77852357 Z M8.50420996,1.61773723 L18.3584931,1.61773723 L21.5765277,4.74553948 L16.6505235,9.52974997 L8.50420996,1.61773723 Z M29.5203871,10.4851514 L38.080708,2.16974694 L43.0870872,7.03243683 L34.5271455,15.3478413 L29.5203871,10.4851514 Z M2.11628996,7.11470751 L7.12304831,2.25163849 L15.6340826,10.5173772 L10.6280825,15.3800671 L2.11628996,7.11470751 Z M17.6692392,10.5173772 L22.5929686,5.73240848 L27.4871261,10.4851514 L22.5599846,15.2693619 L17.6692392,10.5173772 Z M35.5439656,16.3350894 L43.8498918,8.2680135 L43.8498918,16.8594228 L39.9672466,20.6306045 L35.5439656,16.3350894 Z M1.43613514,16.8594228 L1.43613514,8.42952183 L9.61050413,16.3669361 L5.27063113,20.5820762 L1.43613514,16.8594228 Z M23.5768046,16.2577474 L28.5047045,11.4735369 L33.5103254,16.3350894 L28.5839421,21.1200581 L23.5768046,16.2577474 Z M11.6441443,16.3669361 L16.6505235,11.5053836 L21.5435436,16.2577474 L16.5371644,21.1200581 L11.6441443,16.3669361 Z M17.5543636,22.1069271 L22.5599846,17.2453746 L27.5667429,22.1069271 L22.5599846,26.9707544 L17.5543636,22.1069271 Z M29.6000039,22.1069271 L34.5271455,17.3234749 L38.9489101,21.6174735 L34.0236641,26.4032005 L29.6000039,22.1069271 Z M6.28669295,21.5700825 L10.6280825,17.3560799 L15.5199652,22.1069271 L11.1808504,26.3228254 L6.28669295,21.5700825 Z M23.5768046,27.9587608 L28.5839421,23.0953126 L33.0060858,27.3908277 L27.9993274,32.2531385 L23.5768046,27.9587608 Z M12.1984288,27.3112109 L16.5371644,23.0953126 L21.5435436,27.9587608 L17.2051871,32.1727635 L12.1984288,27.3112109 Z M18.2216281,33.1607698 L22.5599846,28.9460089 L26.9832656,33.2411449 L22.6452883,37.4559058 L18.2216281,33.1607698 L18.2216281,33.1607698 Z" id="Fill-1"></path>
            </g>
            <path d="M32.8910084,90.1392268 L32.8910084,106.099227 L29.1110084,106.099227 L29.1110084,90.1392268 L23.5110084,90.1392268 L23.5110084,86.4992268 L38.4910084,86.4992268 L38.4910084,90.1392268 L32.8910084,90.1392268 Z M47.5630084,106.435227 C45.490998,106.435227 43.857681,105.772567 42.6630084,104.447227 C41.4683357,103.121887 40.8710084,101.283239 40.8710084,98.9312268 C40.8710084,96.6352153 41.4730024,94.8152335 42.6770084,93.4712268 C43.8810144,92.1272201 45.5096648,91.4552268 47.5630084,91.4552268 C49.4296844,91.4552268 50.9510025,92.0292211 52.1270084,93.1772268 C53.3030143,94.3252325 53.8910084,96.0005491 53.8910084,98.2032268 C53.8910084,99.117898 53.8536754,99.8365575 53.7790084,100.359227 L44.4550084,100.359227 C44.5296754,101.255231 44.8610054,101.959891 45.4490084,102.473227 C46.0370113,102.986563 46.7416709,103.243227 47.5630084,103.243227 C48.8323481,103.243227 49.8590045,102.748565 50.6430084,101.759227 L52.8830084,104.027227 C51.5576684,105.632568 49.7843528,106.435227 47.5630084,106.435227 Z M44.4830084,97.2792268 L50.3350084,97.2792268 C50.2230078,96.4578894 49.9196775,95.8138958 49.4250084,95.3472268 C48.9303392,94.8805578 48.3096788,94.6472268 47.5630084,94.6472268 C45.7336659,94.6472268 44.7070095,95.5245514 44.4830084,97.2792268 Z M65.3710084,106.099227 L65.3710084,105.063227 C64.4563371,105.977898 63.2243495,106.435227 61.6750084,106.435227 C60.1256673,106.435227 58.8610133,106.024564 57.8810084,105.203227 C56.9010035,104.381889 56.4110084,103.215234 56.4110084,101.703227 C56.4110084,100.153886 56.9663362,98.9778975 58.0770084,98.1752268 C59.1876806,97.3725561 60.5270005,96.9712268 62.0950084,96.9712268 C63.3456813,96.9712268 64.4376704,97.1952246 65.3710084,97.6432268 L65.3710084,96.9152268 C65.3710084,95.4032192 64.5123503,94.6472268 62.7950084,94.6472268 C61.2270005,94.6472268 59.7523486,95.123222 58.3710084,96.0752268 L57.2510084,93.1352268 C58.91235,92.0152212 60.8629972,91.4552268 63.1030084,91.4552268 C63.8683455,91.4552268 64.5450054,91.5205595 65.1330084,91.6512268 C65.7210113,91.7818941 66.3323385,92.0245584 66.9670084,92.3792268 C67.6016782,92.7338952 68.0916733,93.2985563 68.4370084,94.0732268 C68.7823434,94.8478973 68.9550084,95.8138877 68.9550084,96.9712268 L68.9550084,106.099227 L65.3710084,106.099227 Z M62.3750084,103.243227 C63.5136807,103.243227 64.5123374,102.851231 65.3710084,102.067227 L65.3710084,100.527227 C64.5870045,100.209892 63.7003467,100.051227 62.7110084,100.051227 C61.8896709,100.051227 61.2270109,100.186559 60.7230084,100.457227 C60.2190059,100.727895 59.9670084,101.143224 59.9670084,101.703227 C59.9670084,102.169896 60.1770063,102.543225 60.5970084,102.823227 C61.0170105,103.103228 61.6096712,103.243227 62.3750084,103.243227 Z M89.6750084,106.099227 L89.6750084,98.2872268 C89.6750084,97.1112209 89.4976768,96.2618961 89.1430084,95.7392268 C88.7883399,95.2165575 88.2096791,94.9552268 87.4070084,94.9552268 C86.5483374,94.9552268 85.9183437,95.2165575 85.5170084,95.7392268 C85.115673,96.2618961 84.9150084,97.1018877 84.9150084,98.2592268 L84.9150084,106.099227 L81.2750084,106.099227 L81.2750084,98.2872268 C81.2750084,97.1112209 81.0976768,96.2618961 80.7430084,95.7392268 C80.3883399,95.2165575 79.8096791,94.9552268 79.0070084,94.9552268 C78.1483374,94.9552268 77.5183437,95.2165575 77.1170084,95.7392268 C76.715673,96.2618961 76.5150084,97.1018877 76.5150084,98.2592268 L76.5150084,106.099227 L72.8750084,106.099227 L72.8750084,91.7912268 L76.5150084,91.7912268 L76.5150084,93.1072268 C77.3736793,92.005888 78.5030014,91.4552268 79.9030084,91.4552268 C81.6576838,91.4552268 82.8803383,92.1272201 83.5710084,93.4712268 C84.5230131,92.1272201 85.9883318,91.4552268 87.9670084,91.4552268 C91.5323595,91.4552268 93.3150084,93.3405413 93.3150084,97.1112268 L93.3150084,106.099227 L89.6750084,106.099227 Z M32.7230084,140.435227 C31.509669,140.435227 30.40368,140.239229 29.4050084,139.847227 C28.4063367,139.455225 27.5850116,138.927897 26.9410084,138.265227 C26.2970052,137.602557 25.7510106,136.832565 25.3030084,135.955227 C24.8550061,135.077889 24.537676,134.167898 24.3510084,133.225227 C24.1643408,132.282555 24.0710084,131.307232 24.0710084,130.299227 C24.0710084,129.291222 24.1643408,128.315898 24.3510084,127.373227 C24.537676,126.430555 24.8550061,125.520565 25.3030084,124.643227 C25.7510106,123.765889 26.2970052,122.995897 26.9410084,122.333227 C27.5850116,121.670557 28.4063367,121.143229 29.4050084,120.751227 C30.40368,120.359225 31.509669,120.163227 32.7230084,120.163227 C33.9363478,120.163227 35.0423367,120.359225 36.0410084,120.751227 C37.03968,121.143229 37.8610052,121.670557 38.5050084,122.333227 C39.1490116,122.995897 39.6903395,123.765889 40.1290084,124.643227 C40.5676772,125.520565 40.8803408,126.430555 41.0670084,127.373227 C41.253676,128.315898 41.3470084,129.291222 41.3470084,130.299227 C41.3470084,131.307232 41.253676,132.282555 41.0670084,133.225227 C40.8803408,134.167898 40.5676772,135.077889 40.1290084,135.955227 C39.6903395,136.832565 39.1490116,137.602557 38.5050084,138.265227 C37.8610052,138.927897 37.03968,139.455225 36.0410084,139.847227 C35.0423367,140.239229 33.9363478,140.435227 32.7230084,140.435227 Z M32.7230084,136.795227 C33.5443458,136.795227 34.2723385,136.594562 34.9070084,136.193227 C35.5416782,135.791891 36.0363399,135.259897 36.3910084,134.597227 C36.7456768,133.934557 37.0070075,133.23923 37.1750084,132.511227 C37.3430092,131.783223 37.4270084,131.045897 37.4270084,130.299227 C37.4270084,129.496556 37.3430092,128.73123 37.1750084,128.003227 C37.0070075,127.275223 36.7503434,126.58923 36.4050084,125.945227 C36.0596733,125.301224 35.5696782,124.783229 34.9350084,124.391227 C34.3003385,123.999225 33.5630126,123.803227 32.7230084,123.803227 C31.8830042,123.803227 31.1410116,124.003891 30.4970084,124.405227 C29.8530052,124.806562 29.3583434,125.338557 29.0130084,126.001227 C28.6676733,126.663897 28.4110092,127.354557 28.2430084,128.073227 C28.0750075,128.791897 27.9910084,129.53389 27.9910084,130.299227 C27.9910084,131.381899 28.131007,132.389889 28.4110084,133.323227 C28.6910098,134.256565 29.204338,135.068557 29.9510084,135.759227 C30.6976788,136.449897 31.6216695,136.795227 32.7230084,136.795227 Z M53.8350084,140.099227 L53.8350084,132.259227 C53.8350084,131.101888 53.6343437,130.261896 53.2330084,129.739227 C52.831673,129.216558 52.2016793,128.955227 51.3430084,128.955227 C49.5323327,128.955227 48.6270084,130.037883 48.6270084,132.203227 L48.6270084,140.099227 L44.9870084,140.099227 L44.9870084,125.791227 L48.6270084,125.791227 L48.6270084,127.135227 C49.5416796,126.015221 50.8203335,125.455227 52.4630084,125.455227 C53.8816821,125.455227 55.0716702,125.898556 56.0330084,126.785227 C56.9943465,127.671898 57.4750084,129.10455 57.4750084,131.083227 L57.4750084,140.099227 L53.8350084,140.099227 Z M67.5270084,140.435227 C65.454998,140.435227 63.821681,139.772567 62.6270084,138.447227 C61.4323357,137.121887 60.8350084,135.283239 60.8350084,132.931227 C60.8350084,130.635215 61.4370024,128.815234 62.6410084,127.471227 C63.8450144,126.12722 65.4736648,125.455227 67.5270084,125.455227 C69.3936844,125.455227 70.9150025,126.029221 72.0910084,127.177227 C73.2670143,128.325233 73.8550084,130.000549 73.8550084,132.203227 C73.8550084,133.117898 73.8176754,133.836558 73.7430084,134.359227 L64.4190084,134.359227 C64.4936754,135.255231 64.8250054,135.959891 65.4130084,136.473227 C66.0010113,136.986563 66.7056709,137.243227 67.5270084,137.243227 C68.7963481,137.243227 69.8230045,136.748565 70.6070084,135.759227 L72.8470084,138.027227 C71.5216684,139.632568 69.7483528,140.435227 67.5270084,140.435227 Z M64.4470084,131.279227 L70.2990084,131.279227 C70.1870078,130.457889 69.8836775,129.813896 69.3890084,129.347227 C68.8943392,128.880558 68.2736788,128.647227 67.5270084,128.647227 C65.6976659,128.647227 64.6710095,129.524551 64.4470084,131.279227 Z M84.3550084,140.099227 L84.3550084,120.499227 L88.1350084,120.499227 L88.1350084,136.459227 L97.5990084,136.459227 L97.5990084,140.099227 L84.3550084,140.099227 Z M105.999008,140.435227 C103.964332,140.435227 102.359014,139.772567 101.183008,138.447227 C100.007002,137.121887 99.4190084,135.292572 99.4190084,132.959227 C99.4190084,130.644549 100.011669,128.815234 101.197008,127.471227 C102.382348,126.12722 103.982998,125.455227 105.999008,125.455227 C108.015018,125.455227 109.615669,126.12722 110.801008,127.471227 C111.986348,128.815234 112.579008,130.644549 112.579008,132.959227 C112.579008,135.292572 111.991014,137.121887 110.815008,138.447227 C109.639002,139.772567 108.033685,140.435227 105.999008,140.435227 Z M105.999008,136.935227 C106.91368,136.935227 107.632339,136.58523 108.155008,135.885227 C108.677678,135.185223 108.939008,134.2099 108.939008,132.959227 C108.939008,131.708554 108.677678,130.728564 108.155008,130.019227 C107.632339,129.30989 106.91368,128.955227 105.999008,128.955227 C105.103004,128.955227 104.389011,129.314557 103.857008,130.033227 C103.325006,130.751897 103.059008,131.727221 103.059008,132.959227 C103.059008,134.191233 103.325006,135.16189 103.857008,135.871227 C104.389011,136.580564 105.103004,136.935227 105.999008,136.935227 Z M119.915008,140.099227 L114.679008,125.791227 L118.431008,125.791227 L121.427008,134.275227 C121.595009,134.779229 121.725675,135.217892 121.819008,135.591227 C121.912342,135.217892 122.043008,134.779229 122.211008,134.275227 L125.179008,125.791227 L128.931008,125.791227 L123.695008,140.099227 L119.915008,140.099227 Z M137.723008,140.435227 C135.650998,140.435227 134.017681,139.772567 132.823008,138.447227 C131.628336,137.121887 131.031008,135.283239 131.031008,132.931227 C131.031008,130.635215 131.633002,128.815234 132.837008,127.471227 C134.041014,126.12722 135.669665,125.455227 137.723008,125.455227 C139.589684,125.455227 141.111002,126.029221 142.287008,127.177227 C143.463014,128.325233 144.051008,130.000549 144.051008,132.203227 C144.051008,133.117898 144.013675,133.836558 143.939008,134.359227 L134.615008,134.359227 C134.689675,135.255231 135.021005,135.959891 135.609008,136.473227 C136.197011,136.986563 136.901671,137.243227 137.723008,137.243227 C138.992348,137.243227 140.019004,136.748565 140.803008,135.759227 L143.043008,138.027227 C141.717668,139.632568 139.944353,140.435227 137.723008,140.435227 Z M134.643008,131.279227 L140.495008,131.279227 C140.383008,130.457889 140.079678,129.813896 139.585008,129.347227 C139.090339,128.880558 138.469679,128.647227 137.723008,128.647227 C135.893666,128.647227 134.867009,129.524551 134.643008,131.279227 Z M42.9430084,174.099227 L39.1630084,174.099227 L39.1630084,164.019227 C39.1630084,163.589891 39.1816749,163.076563 39.2190084,162.479227 C38.9950073,163.132563 38.7990092,163.645892 38.6310084,164.019227 L33.8710084,174.435227 L29.0830084,164.019227 C28.9150075,163.645892 28.7190095,163.132563 28.4950084,162.479227 C28.5323419,163.076563 28.5510084,163.589891 28.5510084,164.019227 L28.5510084,174.099227 L24.7710084,174.099227 L24.7710084,154.499227 L28.6070084,154.499227 L33.4230084,165.307227 C33.5723425,165.661895 33.7403408,166.109891 33.9270084,166.651227 C34.113676,166.109891 34.2816743,165.661895 34.4310084,165.307227 L39.3310084,154.499227 L42.9430084,154.499227 L42.9430084,174.099227 Z M53.2750084,174.435227 C51.202998,174.435227 49.569681,173.772567 48.3750084,172.447227 C47.1803357,171.121887 46.5830084,169.283239 46.5830084,166.931227 C46.5830084,164.635215 47.1850024,162.815234 48.3890084,161.471227 C49.5930144,160.12722 51.2216648,159.455227 53.2750084,159.455227 C55.1416844,159.455227 56.6630025,160.029221 57.8390084,161.177227 C59.0150143,162.325233 59.6030084,164.000549 59.6030084,166.203227 C59.6030084,167.117898 59.5656754,167.836558 59.4910084,168.359227 L50.1670084,168.359227 C50.2416754,169.255231 50.5730054,169.959891 51.1610084,170.473227 C51.7490113,170.986563 52.4536709,171.243227 53.2750084,171.243227 C54.5443481,171.243227 55.5710045,170.748565 56.3550084,169.759227 L58.5950084,172.027227 C57.2696684,173.632568 55.4963528,174.435227 53.2750084,174.435227 Z M50.1950084,165.279227 L56.0470084,165.279227 C55.9350078,164.457889 55.6316775,163.813896 55.1370084,163.347227 C54.6423392,162.880558 54.0216788,162.647227 53.2750084,162.647227 C51.4456659,162.647227 50.4190095,163.524551 50.1950084,165.279227 Z M79.7630084,174.099227 L79.7630084,166.287227 C79.7630084,165.111221 79.5856768,164.261896 79.2310084,163.739227 C78.8763399,163.216558 78.2976791,162.955227 77.4950084,162.955227 C76.6363374,162.955227 76.0063437,163.216558 75.6050084,163.739227 C75.203673,164.261896 75.0030084,165.101888 75.0030084,166.259227 L75.0030084,174.099227 L71.3630084,174.099227 L71.3630084,166.287227 C71.3630084,165.111221 71.1856768,164.261896 70.8310084,163.739227 C70.4763399,163.216558 69.8976791,162.955227 69.0950084,162.955227 C68.2363374,162.955227 67.6063437,163.216558 67.2050084,163.739227 C66.803673,164.261896 66.6030084,165.101888 66.6030084,166.259227 L66.6030084,174.099227 L62.9630084,174.099227 L62.9630084,159.791227 L66.6030084,159.791227 L66.6030084,161.107227 C67.4616793,160.005888 68.5910014,159.455227 69.9910084,159.455227 C71.7456838,159.455227 72.9683383,160.12722 73.6590084,161.471227 C74.6110131,160.12722 76.0763318,159.455227 78.0550084,159.455227 C81.6203595,159.455227 83.4030084,161.340541 83.4030084,165.111227 L83.4030084,174.099227 L79.7630084,174.099227 Z M94.0150084,174.435227 C92.7270019,174.435227 91.756345,173.977898 91.1030084,173.063227 L91.1030084,174.099227 L87.4630084,174.099227 L87.4630084,155.535227 L91.1030084,153.883227 L91.1030084,160.827227 C91.831012,159.912556 92.8483352,159.455227 94.1550084,159.455227 C95.8910171,159.455227 97.3143362,160.131887 98.4250084,161.485227 C99.5356806,162.838567 100.091008,164.653882 100.091008,166.931227 C100.091008,169.320572 99.5496805,171.168554 98.4670084,172.475227 C97.3843363,173.7819 95.9003511,174.435227 94.0150084,174.435227 Z M93.5950084,170.935227 C94.5096796,170.935227 95.2143392,170.580564 95.7090084,169.871227 C96.2036775,169.16189 96.4510084,168.1819 96.4510084,166.931227 C96.4510084,165.64322 96.2036775,164.658564 95.7090084,163.977227 C95.2143392,163.29589 94.5096796,162.955227 93.5950084,162.955227 C92.4750028,162.955227 91.6443444,163.347223 91.1030084,164.131227 L91.1030084,169.787227 C91.6443444,170.552564 92.4750028,170.935227 93.5950084,170.935227 Z M109.583008,174.435227 C107.510998,174.435227 105.877681,173.772567 104.683008,172.447227 C103.488336,171.121887 102.891008,169.283239 102.891008,166.931227 C102.891008,164.635215 103.493002,162.815234 104.697008,161.471227 C105.901014,160.12722 107.529665,159.455227 109.583008,159.455227 C111.449684,159.455227 112.971002,160.029221 114.147008,161.177227 C115.323014,162.325233 115.911008,164.000549 115.911008,166.203227 C115.911008,167.117898 115.873675,167.836558 115.799008,168.359227 L106.475008,168.359227 C106.549675,169.255231 106.881005,169.959891 107.469008,170.473227 C108.057011,170.986563 108.761671,171.243227 109.583008,171.243227 C110.852348,171.243227 111.879004,170.748565 112.663008,169.759227 L114.903008,172.027227 C113.577668,173.632568 111.804353,174.435227 109.583008,174.435227 Z M106.503008,165.279227 L112.355008,165.279227 C112.243008,164.457889 111.939678,163.813896 111.445008,163.347227 C110.950339,162.880558 110.329679,162.647227 109.583008,162.647227 C107.753666,162.647227 106.727009,163.524551 106.503008,165.279227 Z M119.271008,174.099227 L119.271008,159.791227 L122.911008,159.791227 L122.911008,161.051227 C123.415011,159.987221 124.301669,159.455227 125.571008,159.455227 C126.635014,159.455227 127.605671,159.819223 128.483008,160.547227 L127.979008,163.879227 C127.195004,163.319224 126.327013,163.039227 125.375008,163.039227 C123.732333,163.039227 122.911008,164.065883 122.911008,166.119227 L122.911008,174.099227 L119.271008,174.099227 Z" id="Team-One-Love-Member" fill="#FFFFFF"></path>
        </g>
    </g>
</svg>