<?xml version="1.0" encoding="UTF-8"?>
<svg width="282px" height="148px" viewBox="0 0 282 148" version="1.1" xmlns="http://www.w3.org/2000/svg" xmlns:xlink="http://www.w3.org/1999/xlink">
    <!-- Generator: Sketch 45 (43475) - http://www.bohemiancoding.com/sketch -->
    <title>Group</title>
    <desc>Created with Sketch.</desc>
    <defs>
        <polygon id="path-1" points="0 92.527958 0 0.0845334528 144.968304 0.0845334528 144.968304 92.527958"></polygon>
        <polygon id="path-3" points="0.617099439 0.462777778 28.5234472 0.462777778 28.5234472 25.0380003 0.617099439 25.0380003 0.617099439 0.462777778"></polygon>
        <polygon id="path-5" points="24.7785664 15.8666667 0.813753451 15.8666667 0.813753451 0.841991111 24.7785664 0.841991111"></polygon>
    </defs>
    <g id="Symbols" stroke="none" stroke-width="1" fill="none" fill-rule="evenodd">
        <g id="TNL-campaign-grid" transform="translate(-59.000000, -94.000000)">
            <g id="Group" transform="translate(59.000000, 94.000000)">
                <g id="tnl" transform="translate(95.000000, 0.000000)">
                    <path d="M186.734564,147.85521 C185.027741,147.959874 183.351189,147.927312 181.721209,147.75985 C164.266442,145.945677 153.194215,132.38822 149.186791,113.753405 C147.102744,104.061534 142.692482,98.7073967 134.528606,90.4389534 C124.245755,80.0307159 124.038515,63.5845379 134.067554,53.7019455 C144.096594,43.8170273 160.557072,44.2449861 170.839922,54.6555494 C176.724153,60.6097589 181.122773,64.60094 186.74155,67.1896257 L186.734564,147.85521 Z" id="Fill-1" fill="#FF5D00"></path>
                    <path d="M181.724934,72.5053858 C182.064902,71.7773907 181.231283,71.5703889 181.231283,71.5703889 C176.569538,71.3540836 168.950541,73.4380569 161.501529,80.3365669 C160.239458,81.5181054 159.044915,82.7577904 157.913243,84.055622 C151.141836,91.4937323 149.691154,102.53693 150.266304,103.6673 C150.419988,104.118517 151.009109,104.779062 151.521389,104.123169 C152.157082,103.339353 152.762503,102.204332 153.332996,100.392485 C155.258702,93.9591472 159.554866,87.7537444 162.614573,84.80455 C165.327327,81.4553071 174.809158,75.594132 177.82928,74.8661369 C178.942324,74.421897 181.382638,73.2124482 181.724934,72.5053858" id="Fill-3" fill="#D74500"></path>
                    <path d="M158.153083,51.9610369 C158.239239,52.0494197 160.274386,54.1403707 160.123031,56.6941684 C160.041532,58.0920121 159.328997,59.3316972 158.01337,60.3783356 C157.715316,60.6202253 157.275222,60.5690563 157.03771,60.26902 C156.79787,59.9689836 156.844441,59.5340472 157.147152,59.2944833 C158.14144,58.5036899 158.677005,57.6035809 158.735219,56.6174149 C158.856303,54.6869485 157.179751,52.9518546 157.163451,52.9332477 C156.895669,52.6611217 156.900326,52.2215336 157.172766,51.9540594 C157.445205,51.6865851 157.8853,51.688911 158.153083,51.9610369" id="Fill-5" fill="#000000"></path>
                    <path d="M154.125866,52.4834258 C154.228322,52.5532017 156.636036,54.2022386 156.987646,56.7351036 C157.180916,58.121318 156.733835,59.4772962 155.651062,60.7634985 C155.404236,61.0565572 154.96647,61.093771 154.668416,60.8472296 C154.37502,60.6006881 154.340092,60.1634258 154.586917,59.8703671 C155.404236,58.9004821 155.751189,57.9119903 155.616134,56.9328019 C155.348351,55.0162907 153.36676,53.6463574 153.348132,53.6324022 C153.03145,53.4184228 152.947622,52.9858122 153.161848,52.6694949 C153.378403,52.3531775 153.809184,52.2694464 154.125866,52.4834258" id="Fill-7" fill="#000000"></path>
                    <path d="M149.789418,54.127811 C149.908174,54.1603731 152.725712,54.9232562 153.89697,57.1979503 C154.537319,58.444613 154.558276,59.8726929 153.962169,61.4426505 C153.822456,61.8008334 153.424275,61.9799249 153.06568,61.8450248 C152.707084,61.7101248 152.525457,61.3077505 152.660513,60.9495675 C153.114579,59.7657032 153.114579,58.7190648 152.662841,57.8375627 C151.777995,56.1140981 149.454108,55.4744858 149.433151,55.469834 C149.062912,55.3698219 148.844029,54.9907062 148.941828,54.620894 C149.039627,54.2510818 149.41918,54.0301248 149.789418,54.127811" id="Fill-9" fill="#000000"></path>
                    <path d="M137.239497,72.5077117 C136.135767,73.41945 135.413918,74.5823816 135.062308,75.8220666 C134.503458,77.8153313 134.929581,80.013272 136.41985,81.6716124 C136.783102,82.0693349 137.190598,82.3996075 137.623707,82.6903404 C140.096621,84.3649618 143.561494,84.2719273 146.006465,82.2507523 C148.87756,79.8806978 149.240813,75.7778752 146.823784,73.0868516 C144.402099,70.3981538 140.108263,70.1376572 137.239497,72.5077117" id="Fill-11" fill="#FFFFFF"></path>
                    <path d="M138.956333,80.1097953 C137.503321,78.5607704 137.582492,76.1302435 139.133302,74.6789049 C140.684112,73.2275663 143.117441,73.3066457 144.570452,74.8556705 C146.021135,76.4046953 145.944293,78.8352223 144.393483,80.2865609 C142.842673,81.7378995 140.409344,81.6588201 138.956333,80.1097953" id="Fill-13" fill="#000000"></path>
                    <path d="M151.235677,59.4086832 C150.134275,60.3180957 149.410098,61.4810273 149.060817,62.7207123 C148.499638,64.713977 148.925761,66.9119176 150.418358,68.570258 C150.779282,68.9679806 151.186777,69.300579 151.619887,69.5913119 C154.095129,71.2636075 157.557674,71.170573 160.002645,69.1493979 C162.87374,66.7816693 163.239321,62.6765209 160.819964,59.9878231 C158.398278,57.2967995 154.106772,57.0363028 151.235677,59.4086832" id="Fill-15" fill="#FFFFFF"></path>
                    <path d="M152.952512,67.0086735 C151.499501,65.4596487 151.578671,63.0291217 153.129482,61.5777832 C154.680292,60.1264446 157.113621,60.2055239 158.566632,61.7545488 C160.017315,63.3035736 159.940473,65.7341005 158.389663,67.1854391 C156.838852,68.6367777 154.405524,68.5576984 152.952512,67.0086735" id="Fill-17" fill="#000000"></path>
                    <path d="M115.388905,59.42008 C112.208114,62.9786505 111.60735,68.0978752 114.823069,71.6215578 C116.124725,73.0496378 117.798948,73.9311399 119.561656,74.2753677 C118.737352,74.6382023 117.954961,75.135937 117.251741,75.7755494 C113.723996,78.992218 113.470185,84.4556705 116.685904,87.9793531 C119.352087,90.8983113 123.564423,91.565834 126.936155,89.884235 C126.137465,92.4264034 127.078196,95.3081478 129.008559,97.4246832 C132.226607,100.94604 137.21202,101.704271 141.231087,97.989868 C146.426069,93.1823089 148.426288,80.8249982 135.754352,74.0962762 C131.930882,72.0657977 129.809579,70.1330055 128.913089,65.7882932 C127.965372,61.2086687 131.202048,57.1919031 132.433848,55.5475179 C128.235483,52.7960218 120.881941,53.2704979 115.388905,59.42008" id="Fill-19" fill="#000000"></path>
                    <path d="M147.795253,106.945836 C148.99911,118.954268 125.788183,127.129677 113.418957,116.688877 C109.430161,113.323353 106.123628,107.294716 103.618115,101.731251 L97.1005202,108.150634 C97.9737242,108.776291 107.00149,119.812511 107.709367,120.735879 C115.922142,131.476715 129.045816,136.205194 142.283589,130.232378 C148.426288,127.455297 157.167643,120.491663 164.015891,116.663293 C164.015891,116.663293 147.473914,103.759404 147.795253,106.945836" id="Fill-21" fill="#FF5D00"></path>
                    <path d="M87.471292,93.4949049 C86.5072747,93.6623671 84.8772939,93.4553652 86.388519,96.330132 C87.8997441,99.202573 93.2647096,108.122258 92.812972,109.07121 C92.812972,109.07121 96.6550697,108.129236 98.2943648,107.559399 C99.9383169,106.991889 109.30605,102.228521 103.859585,95.0462556 C101.684725,92.1807922 100.271299,90.875983 100.881377,89.5223307 C100.881377,89.5223307 90.8383667,90.0712344 87.471292,93.4949049" id="Fill-23" fill="#FF5D00"></path>
                    <path d="M70.996377,42.6371169 C69.9462036,40.6089643 67.452333,39.8135191 65.4171854,40.8624833 C63.3913521,41.9114476 62.5973186,44.4047729 63.6451634,46.4305996 L101.52359,116.827498 C102.576092,118.857977 103.915004,120.248843 105.940838,119.202205 C107.971328,118.155566 107.612732,116.257662 106.557902,114.229509 L70.996377,42.6371169 Z" id="Fill-25" fill="#000000"></path>
                    <path d="M96.8809385,86.6922205 L93.7676751,89.0762302 C92.62436,89.9600581 92.389177,91.576533 93.2437527,92.6859697 C94.0983284,93.7954064 95.7213236,93.9838013 96.8669672,93.1022992 L99.9848877,90.7159637 C101.125874,89.8414391 101.361057,88.2203125 100.501825,87.1132017 C99.6495774,86.0014391 98.0242536,85.8130442 96.8809385,86.6922205" id="Fill-27" fill="#FF5D00"></path>
                    <path d="M88.7629353,92.0072829 L85.2910761,93.0539213 C84.015034,93.4400145 83.2722284,94.7378462 83.6378099,95.9449691 C84.0010627,97.1567438 85.3353185,97.8219406 86.6160177,97.4358474 L90.092534,96.3961866 C91.3662476,96.0124191 92.1090532,94.7076099 91.7411432,93.5028128 C91.3755618,92.2910382 90.041306,91.6211896 88.7629353,92.0072829" id="Fill-29" fill="#FF5D00"></path>
                    <path d="M90.8027399,96.552252 L86.4180915,97.8710164 C84.8113961,98.3594476 83.8124507,99.7991569 84.2013175,101.083033 C84.5901844,102.36691 86.2155081,103.0135 87.8315177,102.525068 L92.2161662,101.210956 C93.8228616,100.72485 94.821807,99.2828153 94.428283,97.9989388 C94.0440733,96.7150624 92.4140924,96.0661466 90.8027399,96.552252" id="Fill-31" fill="#FF5D00"></path>
                    <path d="M93.4905784,101.151646 L89.4039835,102.382028 C87.9020726,102.837897 86.9753121,104.17992 87.3362364,105.375414 C87.6994893,106.573233 89.2130429,107.177958 90.7196109,106.722088 L94.8085343,105.494033 C96.3081167,105.045141 97.2372057,103.698466 96.8692958,102.500647 C96.5083715,101.302827 94.9924893,100.700429 93.4905784,101.151646" id="Fill-33" fill="#FF5D00"></path>
                    <path d="M96.2466431,105.346806 L92.8073835,106.381815 C91.5429841,106.765582 90.7908644,107.98666 91.1285033,109.1054 C91.4661421,110.226466 92.7701268,110.821887 94.0368548,110.43812 L97.4784429,109.407763 C98.7405138,109.026321 99.4972906,107.805243 99.1503375,106.684177 C98.8173557,105.567763 97.5110425,104.965364 96.2466431,105.346806" id="Fill-35" fill="#FF5D00"></path>
                    <path d="M152.297493,124.101403 C152.297493,124.101403 163.211379,117.016824 162.17052,118.600737 C159.406538,122.817526 156.127948,131.634873 156.127948,131.634873 C156.127948,131.634873 153.734205,127.566939 152.297493,124.101403" id="Fill-37" fill="#D74500"></path>
                    <g id="Group-41" transform="translate(0.000000, 0.059978)">
                        <mask id="mask-2" fill="white">
                            <use xlink:href="#path-1"></use>
                        </mask>
                        <g id="Clip-40"></g>
                        <path d="M141.869108,29.2171484 L17.4782846,91.9270697 C14.7049886,93.3225875 11.3239426,92.2038474 9.92681619,89.4360703 L0.600997222,70.9384809 C-0.79380067,68.1660521 0.319243391,64.7912247 3.09253937,63.393381 L127.48802,0.685785584 C130.265973,-0.709732283 133.642362,0.406682011 135.044146,3.17911084 L144.369965,21.6743743 C145.760105,24.4444773 144.647061,27.8193047 141.869108,29.2171484" id="Fill-39" fill="#000000" mask="url(#mask-2)"></path>
                    </g>
                    <path d="M21.5786178,71.194762 L21.7858582,73.385725 L23.5299377,72.5112005 L23.2924262,70.3295409 L21.5786178,71.194762 Z M19.0614617,67.9873967 C19.0218764,67.5989776 19.1872031,67.2500981 19.5923697,67.0454222 L20.4818736,66.5965306 C20.821841,66.4267426 21.0919521,66.6267668 21.1338659,66.9500618 L21.3760345,69.3852405 L23.1038142,68.5083901 L22.8639741,66.0778631 C22.8220603,65.6940957 22.9827299,65.3405645 23.3878966,65.1358886 L24.2797289,64.6846711 C24.6196964,64.517209 24.8898075,64.7172332 24.9317213,65.0358764 L25.1738898,67.473381 L25.7024693,67.2035809 C26.0866791,67.0151859 26.424318,67.1640412 26.5943017,67.4989655 L26.7642854,67.8385415 C26.9365977,68.1734658 26.8527701,68.5363004 26.4732174,68.7293471 L25.3648305,69.2875542 L25.5860421,71.4738655 L26.8807126,70.8226239 C27.2788937,70.6249255 27.6072184,70.7807583 27.772545,71.1063792 L27.9471858,71.4529328 C28.1194981,71.7948346 28.0449847,72.1530176 27.6537893,72.3507159 L25.790954,73.2880388 L26.0051801,75.3952707 C26.0354511,75.7697347 25.9260096,76.1162883 25.4859148,76.3395712 L24.601068,76.7791593 C24.2122011,76.9791835 23.9793467,76.7559007 23.9514042,76.4302798 L23.7232069,74.3300254 L21.9930987,75.1998982 L22.2073247,77.3071302 C22.2422529,77.6815942 22.1234971,78.0281478 21.6810738,78.2467789 L20.8032126,78.6910188 C20.4096887,78.8887171 20.1768343,78.670086 20.1535489,78.3398134 L19.923023,76.2418849 L19.6668831,76.3674815 C19.289659,76.5582023 18.9403774,76.4116729 18.7703937,76.0744228 L18.5934243,75.7232174 C18.4304262,75.3999225 18.5189109,75.0324361 18.8938065,74.8417153 L19.7320824,74.4184082 L19.4968994,72.2367486 L18.4700115,72.7600678 C18.0927874,72.9461369 17.757477,72.7926299 17.5921504,72.4553798 L17.4198381,72.1158038 C17.252183,71.7785536 17.3220393,71.4250224 17.6992634,71.2296499 L19.3129444,70.4225754 L19.0614617,67.9873967 Z" id="Fill-42" fill="#FFFFFF"></path>
                    <path d="M32.6913615,60.4536935 C33.0709142,60.2676245 33.4155387,60.4095021 33.5831939,60.751404 L34.0093174,61.5910406 C34.1793011,61.9259649 34.0908165,62.2887995 33.7112638,62.4795203 L31.9415703,63.3703259 L35.5508136,70.5270067 C35.7161402,70.8642568 35.6486125,71.2270915 35.2644027,71.4154864 L34.093145,72.0085815 C33.7182494,72.1969764 33.3666393,72.0481211 33.1966556,71.7131969 L29.5874123,64.5565161 L27.83169,65.4380182 C27.4498088,65.6287389 27.1075128,65.4868613 26.9375291,65.1449594 L26.5114056,64.3006711 C26.3414218,63.9703985 26.4299065,63.6075639 26.8071307,63.4168431 L32.6913615,60.4536935 Z" id="Fill-44" fill="#FFFFFF"></path>
                    <path d="M40.1408397,64.1422798 L41.773149,67.3775554 C41.9710753,67.7706263 41.8523195,68.1008988 41.4774239,68.2916196 L40.3247946,68.8707595 C39.9592132,69.0521769 39.6215743,68.9544906 39.418991,68.5590939 L35.1065274,60.0045694 C34.9086011,59.6114985 35.0296854,59.2789001 35.3975954,59.092831 L36.5478962,58.5136911 C36.9181347,58.3299479 37.2581021,58.4276342 37.4583569,58.820705 L39.1209374,62.1118013 L42.3110427,60.5046299 L40.6484623,57.2088819 C40.4528646,56.8227886 40.5739489,56.4878643 40.9348732,56.306447 L42.0851739,55.7273071 C42.4530839,55.5435639 42.8070226,55.6389243 43.0002918,56.0250176 L47.3150839,64.5888455 C47.5176672,64.9795906 47.3849402,65.3191666 47.0170303,65.5029098 L45.8667295,66.0820497 C45.5034766,66.263467 45.1635092,66.1657807 44.9632544,65.770384 L43.3332736,62.5351084 L40.1408397,64.1422798 Z" id="Fill-46" fill="#FFFFFF"></path>
                    <path d="M51.9973203,58.8681526 L49.4172935,55.7421926 L50.4069247,59.6635978 L51.9973203,58.8681526 Z M56.4168969,60.0427135 C56.6357801,60.289255 56.6404372,60.6613931 56.288827,60.8381587 L55.0081278,61.4800969 C54.6169324,61.6801211 54.2187513,61.5708056 53.9672686,61.2777468 L53.1383069,60.2543671 L50.8679764,61.4033434 L51.186987,62.6779164 C51.2754716,63.0570321 51.1730157,63.4128892 50.7748347,63.6129134 L49.5057782,64.247874 C49.1518395,64.4292913 48.8468002,64.2246154 48.7839295,63.9013204 L46.9141086,54.0047729 C46.8395952,53.6210055 46.9816364,53.2628225 47.3891316,53.0627983 L48.546418,52.4743549 C48.9422705,52.2789824 49.3288088,52.3696911 49.5733059,52.6674016 L56.4168969,60.0427135 Z" id="Fill-48" fill="#FFFFFF"></path>
                    <path d="M58.3644912,47.536315 C58.7440439,47.3432683 59.0863398,47.4921236 59.2563236,47.824722 L59.67779,48.6666844 C59.8501023,49.0085863 59.7662747,49.371421 59.3843935,49.5621417 L57.6170285,50.4506214 L61.2262718,57.6073022 C61.393927,57.9445524 61.3217421,58.3050612 60.9421895,58.4934561 L59.7686033,59.0842253 C59.386722,59.2795978 59.0490831,59.123765 58.8744423,58.7958183 L55.2628705,51.6368116 L53.5024912,52.5229655 C53.125267,52.7090345 52.7852996,52.564831 52.6106588,52.225255 L52.1891923,51.3856184 C52.0168801,51.0460424 52.1053648,50.6832078 52.4802603,50.492487 L58.3644912,47.536315 Z" id="Fill-50" fill="#FFFFFF"></path>
                    <path d="M68.1902486,51.2909558 C67.4055292,49.7372792 63.1722361,53.0748928 61.3769286,49.5070188 C60.6923367,48.160344 60.9158769,46.1159104 63.3282486,44.9041357 C65.5543367,43.7807438 67.2169171,44.2226578 68.2065484,45.5972429 C68.3835177,45.8577396 68.4324171,46.2298776 68.0458788,46.5066554 L67.023648,47.2625609 C66.7302514,47.4602592 66.471783,47.5184058 66.36467,47.3021005 C66.017717,46.683421 65.2190263,46.4415312 64.3947217,46.8578607 C63.6100024,47.2532574 63.4772754,47.8254197 63.7520436,48.3789752 C64.515806,49.8884603 68.8888118,46.7625003 70.6841193,50.3257226 C71.4222677,51.7840388 71.1125714,53.4819188 68.3625608,54.8960436 C66.1737294,56.0310648 64.5600484,55.3542386 63.7054727,54.1959588 C63.5145321,53.9494173 63.4260474,53.6051896 63.8428568,53.2888722 L64.7975599,52.595765 C65.1165704,52.3492235 65.4053099,52.2585148 65.5846078,52.5725064 C65.8407476,53.05396 66.6114957,53.3074791 67.4358003,52.8934755 C68.4347457,52.391089 68.4417313,51.7886905 68.1902486,51.2909558" id="Fill-52" fill="#FFFFFF"></path>
                    <path d="M74.4323766,40.2112417 C74.2367789,39.8204967 74.3578632,39.4878982 74.7187875,39.3018292 L75.8690883,38.727341 C76.2323412,38.541272 76.5862799,38.6366323 76.7842061,39.0297032 L81.1013268,47.5865536 C81.2992531,47.9819503 81.1641975,48.3192005 80.8009446,48.5052695 L79.6506439,49.0797577 C79.2920481,49.261175 78.9497521,49.1658147 78.7494973,48.7727438 L77.3337425,45.9631012 L72.8908805,44.5094367 L75.7945749,50.2566445 C75.9878441,50.6520412 75.8667598,50.9869655 75.4895356,51.1776863 L74.3415634,51.7521744 C73.9736534,51.9382435 73.633686,51.8382314 73.4357598,51.4451605 L69.113982,42.8720291 C68.9416697,42.5324531 69.032483,42.1672925 69.4097071,41.9742459 L70.1362128,41.6114113 C70.5180941,41.4206905 70.9907885,41.3834767 71.3656841,41.5183767 L75.8434743,43.0069291 L74.4323766,40.2112417 Z" id="Fill-54" fill="#0082CD"></path>
                    <path d="M85.9772981,43.4072102 C86.9948718,42.8955203 87.0181573,41.8372526 86.0029121,39.8230551 C84.9620529,37.7553628 84.067892,37.0924918 83.0503182,37.6065076 C82.0257588,38.1181975 82.0420586,39.22996 83.0852464,41.2976523 C84.0958345,43.3095239 84.9550672,43.9258776 85.9772981,43.4072102 M87.0344571,45.500487 C84.3869025,46.8355324 82.4542109,45.9633337 80.7031458,42.4884942 C78.9520807,39.0229582 79.3456046,36.8436245 81.9931592,35.508579 C84.6313996,34.1851629 86.6339475,35.1596996 88.3803556,38.6252356 C90.1337492,42.0977492 89.6726975,44.1724191 87.0344571,45.500487" id="Fill-56" fill="#0082CD"></path>
                    <path d="M93.3790411,29.9153434 C93.7585938,29.7246227 94.1055468,29.8734779 94.273202,30.2130539 L94.696997,31.0503646 C94.8646522,31.3876148 94.7831532,31.7551012 94.3989434,31.9434961 L92.633907,32.8319758 L96.2408217,39.9909824 C96.4108055,40.3305584 96.3339635,40.6864155 95.9544108,40.8748104 L94.7784961,41.4748831 C94.4036005,41.6609522 94.0543189,41.5120969 93.8843352,41.1771726 L90.2750919,34.018166 L88.5216982,34.9019939 C88.1421455,35.0927147 87.797521,34.9438595 87.6252087,34.6089352 L87.2037422,33.7669727 C87.0291014,33.4297226 87.1175861,33.0645621 87.4994673,32.8761672 L93.3790411,29.9153434 Z" id="Fill-58" fill="#0082CD"></path>
                    <path d="M104.453364,34.0604967 C104.832916,33.8697759 105.17987,34.0186311 105.349853,34.3558813 L105.768991,35.193192 C105.941303,35.532768 105.855147,35.8979285 105.473266,36.0886493 L101.014104,38.3331072 C100.662494,38.5075469 100.310884,38.4145124 100.112958,38.0237674 L95.795837,29.4599394 C95.5955822,29.0691944 95.718995,28.7412477 96.0845764,28.5598304 L97.2278916,27.9783646 C97.6097728,27.785318 97.9520688,27.8899818 98.1476665,28.278401 L101.749924,35.4257783 L104.453364,34.0604967 Z" id="Fill-60" fill="#FFFFFF"></path>
                    <path d="M109.924511,31.3643561 C110.935099,30.8503404 110.958384,29.787421 109.947796,27.7755494 C108.904609,25.7101829 108.008119,25.0473119 106.992874,25.5543501 C105.968315,26.0706917 105.984614,27.1824543 107.025474,29.2454949 C108.03839,31.2596923 108.895294,31.8783719 109.924511,31.3643561 M110.979341,33.4483295 C108.324801,34.7903525 106.39211,33.915828 104.643373,30.4433144 C102.894636,26.9754525 103.285832,24.7984446 105.938043,23.465725 C108.576284,22.139983 110.574175,23.1168455 112.322911,26.575404 C114.078634,30.0525694 113.612925,32.1249134 110.979341,33.4483295" id="Fill-62" fill="#FFFFFF"></path>
                    <path d="M120.746187,27.6939116 C120.830014,28.0753531 120.683316,28.4358619 120.280478,28.638212 L118.936908,29.3150382 C118.536398,29.5173882 118.163831,29.4150503 117.91002,29.1173398 L111.024515,21.7466796 C110.800975,21.5047898 110.817275,21.1466069 111.173542,20.9628637 L112.631211,20.2302168 C113.034049,20.0278667 113.387987,20.1557892 113.646456,20.4255893 L117.993848,25.5913313 L116.473308,19.0091387 C116.375509,18.6486299 116.512893,18.2764918 116.915732,18.0718159 L118.187117,17.4345294 C118.538727,17.2600896 118.846095,17.457788 118.904308,17.7857347 L120.746187,27.6939116 Z" id="Fill-64" fill="#FFFFFF"></path>
                    <path d="M129.928567,21.2410369 C130.303463,21.0549679 130.648087,21.1875421 130.825057,21.5410733 L131.244195,22.3714064 C131.421164,22.7272635 131.328022,23.0807947 130.953127,23.2691896 L125.490362,26.0206856 C125.113138,26.2090806 124.754542,26.0462701 124.591544,25.725301 L120.262781,17.1335627 C120.097454,16.8125936 120.178953,16.431152 120.558506,16.245083 L126.02127,13.4935869 C126.396166,13.3075179 126.736133,13.4377662 126.915431,13.7866457 L127.346212,14.6379116 C127.518524,14.9891169 127.423054,15.3426481 127.04583,15.5333689 L123.345773,17.3940594 L124.272534,19.2338171 L127.092401,17.8057371 C127.474282,17.6150164 127.788635,17.7475906 127.974919,18.1104252 L128.396385,18.9500618 C128.578012,19.2989412 128.498841,19.6478207 128.121617,19.8362156 L125.294765,21.2596439 L126.228511,23.108705 L129.928567,21.2410369 Z" id="Fill-66" fill="#FFFFFF"></path>
                </g>
                <g id="tnl-2">
                    <g id="Group-3" transform="translate(13.333333, 0.859577)">
                        <mask id="mask-4" fill="white">
                            <use xlink:href="#path-3"></use>
                        </mask>
                        <g id="Clip-2"></g>
                        <path d="M28.4842667,9.20015444 C28.1789333,7.05947667 26.1882667,5.56536556 24.0362667,5.86683222 C23.2322667,5.97789889 22.5162667,6.32432111 21.9562667,6.82808778 C21.9442667,6.81751 21.9322667,6.80693222 21.9189333,6.79767667 C22.4029333,6.03739889 22.6336,5.11052111 22.4989333,4.15058778 C22.1936,2.00858778 20.2016,0.515798889 18.0496,0.814621111 C16.3362667,1.05526556 15.0416,2.35765444 14.7336,3.96018778 C14.7309333,3.92052111 14.7296,3.87821 14.7242667,3.83589889 C14.4189333,1.69389889 12.4269333,0.199787778 10.2762667,0.501254444 C8.12293333,0.801398889 6.62293333,2.78208778 6.92693333,4.92408778 C6.9976,5.41066556 7.1576,5.86154333 7.3816,6.26746556 C6.53493333,5.39612111 5.30026667,4.92541 4.00426667,5.10523222 C1.85093333,5.40669889 0.352266667,7.38474333 0.656266667,9.52806556 C0.896266667,11.2191878 2.1896,12.5017433 3.78293333,12.8203989 C3.55626667,13.98131 3.51226667,15.1990767 3.68826667,16.4379989 C4.53626667,22.4170878 8.68826667,25.8786656 15.9802667,24.8618767 C22.6389333,23.9336767 26.2349333,19.4619211 25.4709333,13.5608433 C27.4429333,13.1099656 28.7722667,11.2284433 28.4842667,9.20015444" id="Fill-1" fill="#FF5D00" mask="url(#mask-4)"></path>
                    </g>
                    <path d="M24.0037333,62.9098789 L18.5744,62.9098789 C18.4744,64.9011456 18.3317333,68.3971011 18.1637333,72.6348233 C19.6050667,72.7538233 21.9904,73.11479 24.2490667,74.1765344 C24.1064,69.0873011 24.0077333,64.9209789 24.0037333,62.9098789" id="Fill-4" fill="#D74500"></path>
                    <path d="M35.9490667,62.9098789 L30.5184,62.9098789 C30.4077333,65.1153456 30.2610667,69.1679567 30.0917333,74.0297678 C31.4224,74.1170344 33.8690667,74.4224678 36.2330667,75.4683456 C36.0690667,69.7973344 35.9530667,65.0862567 35.9490667,62.9098789" id="Fill-6" fill="#D74500"></path>
                    <path d="M25.3917333,103.453311 C25.3090667,102.314878 24.5864,86.0740222 24.2504,74.1727 C22.2957333,73.0686444 19.6650667,72.5609111 18.1637333,72.6336333 C17.6770667,84.9065 16.3917333,104.372256 16.3984,104.333911 C18.0717333,105.020144 23.1317333,105.485567 25.3917333,103.453311" id="Fill-8" fill="#FF5D00"></path>
                    <path d="M37.3892,104.357182 C37.1692,98.7020378 36.5852,87.63636 36.2332,75.4692711 C34.0198667,74.3599267 31.5172,74.0293711 30.0905333,74.0293711 C29.6798667,85.8672267 28.9732,96.8258044 28.4345333,103.623349 C30.7278667,105.494293 35.6905333,105.023582 37.3892,104.357182" id="Fill-10" fill="#FF5D00"></path>
                    <path d="M26.9998667,70.5256144 C19.2772,70.3405033 12.6225333,67.1473367 8.99053333,62.5565811 C2.87853333,54.8162922 4.04653333,45.0754811 10.0518667,36.2007256 C13.1745333,31.58617 13.6238667,27.7226367 13.7785333,21.2120144 C13.9758667,13.0155589 20.5838667,6.52477 28.5385333,6.71252556 C36.4945333,6.90160333 42.7798667,13.6978256 42.5838667,21.8969256 C42.4252,28.4062256 42.6878667,32.2843033 45.5838667,37.0443033 C51.1518667,46.1927589 51.8532,55.9798478 45.3732,63.41867 C41.5265333,67.8348922 34.7238667,70.7094033 26.9998667,70.5256144" id="Fill-12" fill="#FF5D00"></path>
                    <path d="M12.9373333,61.7219944 C12.5933333,64.1178611 11.1266667,73.71455 11.0306667,85.2178833 C10.9853333,90.5318944 13.116,90.9325278 15.596,95.9344944 C16.3466667,97.44315 14.488,97.9998056 13.8213333,96.9869833 C12.9,95.5854278 13.1453333,95.7850833 12.4653333,94.9520833 C11.3093333,93.5373056 11.8146667,95.1715722 11.956,96.6035389 C12.14,98.5485278 12.3093333,100.006939 12.4186667,101.319906 C12.5306667,102.570728 10.6066667,103.22655 10.4226667,101.683517 C10.2986667,100.652183 9.82,98.3515167 9.65866667,97.4590167 C9.52666667,96.7384056 8.848,96.8455056 8.816,97.6507389 C8.784,98.4017611 8.74266667,103.11945 8.74533333,103.965672 C8.75866667,105.533828 6.58666667,105.272028 6.63066667,104.01195 C6.696,102.352561 6.68266667,99.4687944 6.79333333,98.0540167 C6.88533333,96.8547611 5.748,96.6564278 5.56533333,98.1597944 C5.58933333,97.9442722 5.05066667,101.494439 4.864,102.627583 C4.592,104.286972 2.60533333,103.957739 2.95466667,102.396194 C3.20933333,101.267017 3.312,99.6182056 3.56,98.2325167 C3.852,96.6299833 3.13733333,96.3258722 2.75466667,97.5396722 C2.60533333,98.0050944 2.11466667,99.3775611 1.8,100.184117 C1.37866667,101.245861 -0.324,100.590039 0.0546666667,99.3881389 C2.02933333,93.1922056 5.468,89.3855278 5.88933333,85.4929056 C7.73333333,68.4283056 5.636,59.0246611 5.576,54.1205389 C5.55733333,52.5232944 13.1693333,60.1115278 12.9373333,61.7219944" id="Fill-14" fill="#FF5D00"></path>
                    <path d="M12.3748,65.8228667 L12.7868,61.0258444 L15.7068,67.8405778 C15.7068,67.8405778 13.2454667,66.7008222 12.3748,65.8228667" id="Fill-16" fill="#D74500"></path>
                    <path d="M41.9542667,61.7219944 C42.2982667,64.1178611 43.7636,73.71455 43.8609333,85.2178833 C43.9062667,90.5318944 41.7756,90.9325278 39.2956,95.9344944 C38.5436,97.44315 40.4036,97.9998056 41.0702667,96.9869833 C41.9902667,95.5854278 41.7462667,95.7850833 42.4262667,94.9520833 C43.5822667,93.5373056 43.0769333,95.1715722 42.9342667,96.6035389 C42.7516,98.5485278 42.5822667,100.006939 42.4729333,101.319906 C42.3609333,102.570728 44.2849333,103.22655 44.4689333,101.683517 C44.5942667,100.652183 45.0716,98.3515167 45.2329333,97.4590167 C45.3649333,96.7384056 46.0422667,96.8455056 46.0756,97.6507389 C46.1062667,98.4017611 46.1489333,103.11945 46.1462667,103.965672 C46.1329333,105.533828 48.3049333,105.272028 48.2609333,104.01195 C48.1956,102.352561 48.2076,99.4687944 48.0969333,98.0540167 C48.0062667,96.8547611 49.1436,96.6564278 49.3249333,98.1597944 C49.3022667,97.9442722 49.8409333,101.494439 50.0276,102.627583 C50.2996,104.286972 52.2862667,103.957739 51.9356,102.396194 C51.6822667,101.267017 51.5796,99.6182056 51.3302667,98.2325167 C51.0396,96.6299833 51.7542667,96.3258722 52.1369333,97.5396722 C52.2862667,98.0050944 52.7756,99.3775611 53.0916,100.184117 C53.5129333,101.245861 55.2142667,100.590039 54.8369333,99.3881389 C52.8622667,93.1922056 49.4249333,89.3855278 49.0022667,85.4929056 C47.1569333,68.4283056 49.2556,59.0246611 49.3156,54.1205389 C49.3342667,52.5232944 41.7222667,60.1115278 41.9542667,61.7219944" id="Fill-18" fill="#FF5D00"></path>
                    <path d="M42.5168,65.8228667 L42.1034667,61.0258444 L39.1848,67.8405778 C39.1848,67.8405778 41.6434667,66.7008222 42.5168,65.8228667" id="Fill-20" fill="#D74500"></path>
                    <path d="M25.3917333,103.214386 C23.1317333,105.246641 18.1050667,104.719074 16.4317333,104.031519 C16.3584,104.470497 16.6957333,108.422619 12.6890667,109.816241 C6.26906667,112.053441 2.1424,114.876386 2.35706667,116.734108 C2.61173333,118.954119 10.5077333,118.632819 16.2197333,118.298297 C21.8544,117.970386 27.0064,118.045752 26.2357333,113.868852 C25.4864,109.816241 25.5304,106.855786 25.3917333,103.214386" id="Fill-22" fill="#FF5D00"></path>
                    <g id="Group-26" transform="translate(26.666667, 102.670688)">
                        <mask id="mask-6" fill="white">
                            <use xlink:href="#path-5"></use>
                        </mask>
                        <g id="Clip-25"></g>
                        <path d="M1.77453333,0.841991111 C4.0332,2.87424667 9.03186667,2.17214667 10.7065333,1.48459111 C10.7305333,2.13512444 10.4518667,5.75536889 15.1705333,7.71490222 C21.0292,10.1504356 24.9812,12.2064911 24.7705333,14.0615689 C24.5158667,16.2855467 16.6185333,15.9629244 10.9065333,15.6297244 C5.27186667,15.3004911 0.119866667,15.3745356 0.890533333,11.1963133 C1.6372,7.14766889 1.55186667,4.46884667 1.77453333,0.841991111" id="Fill-24" fill="#FF5D00" mask="url(#mask-6)"></path>
                    </g>
                    <path d="M29.5805333,29.9886611 C29.8778667,29.93445 30.1632,29.8683389 30.4258667,29.7890056 C30.6872,29.7070278 30.9285333,29.6118278 31.1338667,29.5020833 C31.2378667,29.44655 31.3325333,29.38705 31.4192,29.3209389 C30.5538667,29.1424389 29.4618667,29.0168278 27.8858667,29.0168278 C26.7818667,29.0141833 25.6285333,29.14905 24.5458667,29.3658944 C25.1338667,29.7585944 26.3138667,30.11295 28.1725333,30.1076611 C28.3352,30.1089833 28.4978667,30.1050167 28.6578667,30.0957611 C28.9738667,30.07725 29.2845333,30.04155 29.5805333,29.9886611" id="Fill-27" fill="#FFFFFF"></path>
                    <path d="M31.4178667,29.3223933 L31.4178667,29.3223933 C31.3338667,29.38586 31.2378667,29.44536 31.1352,29.5008933 C31.2378667,29.4466822 31.3338667,29.38586 31.4178667,29.3223933" id="Fill-29" fill="#000000"></path>
                    <path d="M34.1573333,30.5787689 C33.7586667,30.0551689 32.9893333,29.7325467 32.1186667,29.4839689 C31.9133333,29.4324022 31.6813333,29.3755467 31.4186667,29.3226578 C31.3333333,29.3848022 31.2386667,29.4443022 31.1333333,29.5011578 C30.928,29.6122244 30.6853333,29.7074244 30.4253333,29.7867578 C30.1613333,29.8687356 29.8773333,29.9361689 29.58,29.9877356 C29.2853333,30.0406244 28.9733333,30.0776467 28.6573333,30.0961578 C28.4973333,30.1054133 28.336,30.1080578 28.1733333,30.1067356 C26.3133333,30.1107022 25.1333333,29.7589911 24.5453333,29.3662911 C24.1906667,29.4390133 23.852,29.5209911 23.5413333,29.6161911 C22.3986667,29.9480689 21.616,30.3738244 21.4213333,30.9886578 C21.2346667,31.5572133 21.7333333,32.0279244 22.5506667,32.38228 C22.5826667,32.3968244 22.616,32.4113689 22.6506667,32.4245911 C22.7146667,32.4510356 22.788,32.4761578 22.8613333,32.5026022 C23.3173333,32.6533356 24.1146667,32.8291911 25.0906667,32.9429022 C25.9466667,33.0500022 26.908,33.0883467 28.168,33.1293356 C29.0093333,33.1478467 29.8213333,33.0658689 30.628,32.9719911 C31.504,32.8609244 32.364,32.7564689 32.9773333,32.5158244 C33.1173333,32.4682244 33.244,32.4140133 33.364,32.3598022 C33.416,32.3333578 33.4706667,32.3082356 33.52,32.2831133 C34.524,31.7581911 34.5493333,31.0838578 34.1573333,30.5787689" id="Fill-31" fill="#000000"></path>
                    <path d="M38.8878667,16.3635578 C38.8878667,16.4323133 38.8785333,18.0679022 37.8052,19.0291578 C37.2172,19.5554022 36.4398667,19.7722467 35.4945333,19.6744022 C35.2785333,19.6532467 35.1225333,19.4615244 35.1452,19.2473244 C35.1678667,19.0344467 35.3598667,18.8784244 35.5758667,18.9009022 C36.2892,18.9749467 36.8612,18.8242133 37.2772,18.4539911 C38.0905333,17.7294133 38.1038667,16.3781022 38.1038667,16.3635578 C38.1038667,16.1493578 38.2798667,15.9748244 38.4958667,15.9761467 C38.7118667,15.9761467 38.8878667,16.1493578 38.8878667,16.3635578" id="Fill-33" fill="#000000"></path>
                    <path d="M37.0584,14.9909589 C37.0730667,15.0583922 37.3877333,16.66357 36.5290667,17.8152256 C36.0557333,18.4446033 35.3357333,18.8121811 34.3904,18.90077 C34.1744,18.9206033 33.9824,18.7645811 33.9637333,18.5490589 C33.9424,18.3348589 34.1010667,18.1471033 34.3157333,18.1259478 C35.0304,18.0571922 35.5610667,17.7993589 35.8944,17.3550922 C36.5477333,16.48507 36.2917333,15.1575589 36.2890667,15.1430144 C36.2477333,14.9341033 36.3850667,14.7291589 36.5970667,14.68817 C36.8090667,14.6432144 37.0157333,14.7807256 37.0584,14.9909589" id="Fill-35" fill="#000000"></path>
                    <path d="M34.66,13.9450811 C34.696,14.0045811 35.528,15.4167144 35.0973333,16.7852144 C34.8613333,17.5362367 34.304,18.11537 33.44,18.50807 C33.244,18.5993033 33.0106667,18.5120367 32.92,18.3189922 C32.8293333,18.1219811 32.916,17.8905922 33.1133333,17.8020033 C33.764,17.5045033 34.18,17.0866811 34.3466667,16.5591144 C34.6746667,15.5224922 33.992,14.35497 33.9853333,14.34307 C33.8746667,14.1566367 33.9373333,13.9173144 34.124,13.80757 C34.3093333,13.70047 34.5493333,13.7612922 34.66,13.9450811" id="Fill-37" fill="#000000"></path>
                    <path d="M16.8136,16.3635578 C16.8136,16.4323133 16.8229333,18.0679022 17.8962667,19.0291578 C18.4842667,19.5554022 19.2616,19.7722467 20.2069333,19.6744022 C20.4229333,19.6532467 20.5776,19.4615244 20.5562667,19.2473244 C20.5336,19.0344467 20.3416,18.8784244 20.1242667,18.9009022 C19.4109333,18.9749467 18.8402667,18.8242133 18.4242667,18.4539911 C17.6109333,17.7294133 17.5976,16.3781022 17.5976,16.3635578 C17.5976,16.1493578 17.4216,15.9748244 17.2056,15.9761467 C16.9896,15.9761467 16.8136,16.1493578 16.8136,16.3635578" id="Fill-39" fill="#000000"></path>
                    <path d="M18.6430667,14.9909589 C18.6284,15.0583922 18.3137333,16.66357 19.1724,17.8152256 C19.6457333,18.4446033 20.3644,18.8121811 21.3097333,18.90077 C21.5257333,18.9206033 21.7190667,18.7645811 21.7377333,18.5490589 C21.7590667,18.3348589 21.6004,18.1471033 21.3857333,18.1259478 C20.6710667,18.0571922 20.1390667,17.7993589 19.8057333,17.3550922 C19.1537333,16.48507 19.4084,15.1575589 19.4110667,15.1430144 C19.4537333,14.9341033 19.3164,14.7291589 19.1044,14.68817 C18.8924,14.6432144 18.6844,14.7807256 18.6430667,14.9909589" id="Fill-41" fill="#000000"></path>
                    <path d="M21.0414667,13.9450811 C21.0054667,14.0045811 20.1734667,15.4167144 20.6041333,16.7852144 C20.8401333,17.5362367 21.3974667,18.11537 22.2614667,18.50807 C22.4574667,18.5993033 22.6894667,18.5120367 22.7814667,18.3189922 C22.8721333,18.1219811 22.7854667,17.8905922 22.5881333,17.8020033 C21.9374667,17.5045033 21.5201333,17.0866811 21.3534667,16.5591144 C21.0254667,15.5224922 21.7094667,14.35497 21.7161333,14.34307 C21.8268,14.1566367 21.7641333,13.9173144 21.5774667,13.80757 C21.3921333,13.70047 21.1521333,13.7612922 21.0414667,13.9450811" id="Fill-43" fill="#000000"></path>
                    <path d="M32.936,16.2602922 C33.736,16.2140144 34.4973333,16.4163144 35.1453333,16.7931478 C35.7333333,17.1356033 36.2093333,17.6327589 36.5493333,18.2171811 C36.1986667,18.0029811 35.8133333,17.8482811 35.388,17.8456367 C34.1906667,17.84167 33.292,18.8042478 33.3773333,19.9982144 C33.464,21.1908589 34.5066667,22.1626922 35.7013333,22.1666589 C35.96,22.1679811 36.1933333,22.1058367 36.416,22.0238589 C35.808,22.9190033 34.8266667,23.5576367 33.6266667,23.6263922 C31.54,23.7480367 29.6946667,22.1983922 29.5066667,20.1634922 C29.3146667,18.1299144 30.852,16.3819367 32.936,16.2602922" id="Fill-45" fill="#FFFFFF"></path>
                    <path d="M33.3774667,19.9983467 C33.2921333,18.8057022 34.1908,17.84048 35.3881333,17.8444467 C35.8134667,17.8484133 36.1988,18.0031133 36.5494667,18.2159911 C36.8148,18.6708356 37.0054667,19.1746022 37.0574667,19.7233244 C37.0841333,20.0261133 37.0654667,20.31568 37.0201333,20.60128 C36.9374667,21.1288467 36.7068,21.5969133 36.4161333,22.0239911 C36.1934667,22.1059689 35.9601333,22.1694356 35.7014667,22.1681133 C34.5068,22.1628244 33.4628,21.1896689 33.3774667,19.9983467" id="Fill-47" fill="#000000"></path>
                    <path d="M22.2849333,16.2602922 C23.0836,16.2140144 23.8449333,16.4163144 24.4942667,16.7931478 C25.0809333,17.1356033 25.5582667,17.6327589 25.8982667,18.2171811 C25.5476,18.0029811 25.1622667,17.8482811 24.7356,17.8456367 C23.5382667,17.84167 22.6396,18.8042478 22.7262667,19.9982144 C22.8129333,21.1908589 23.8542667,22.1626922 25.0502667,22.1666589 C25.3076,22.1679811 25.5409333,22.1058367 25.7649333,22.0238589 C25.1569333,22.9190033 24.1756,23.5576367 22.9742667,23.6263922 C20.8889333,23.7480367 19.0436,22.1983922 18.8542667,20.1634922 C18.6636,18.1299144 20.1996,16.3819367 22.2849333,16.2602922" id="Fill-49" fill="#FFFFFF"></path>
                    <path d="M22.7264,19.9983467 C22.6410667,18.8057022 23.5397333,17.84048 24.7357333,17.8444467 C25.1624,17.8484133 25.5477333,18.0031133 25.8984,18.2159911 C26.1637333,18.6708356 26.3530667,19.1746022 26.4050667,19.7233244 C26.4330667,20.0261133 26.4130667,20.31568 26.3690667,20.60128 C26.2864,21.1288467 26.0557333,21.5969133 25.7650667,22.0239911 C25.5424,22.1059689 25.3077333,22.1694356 25.0504,22.1681133 C23.8544,22.1628244 22.8117333,21.1896689 22.7264,19.9983467" id="Fill-51" fill="#000000"></path>
                </g>
            </g>
        </g>
    </g>
</svg>