<?xml version="1.0" encoding="UTF-8"?>
<svg width="472px" height="336px" viewBox="0 0 472 336" version="1.1" xmlns="http://www.w3.org/2000/svg" xmlns:xlink="http://www.w3.org/1999/xlink">
    <!-- Generator: Sketch 46.1 (44463) - http://www.bohemiancoding.com/sketch -->
    <title>shirt</title>
    <desc>Created with Sketch.</desc>
    <defs>
        <rect id="path-1" x="0" y="0" width="472" height="336"></rect>
        <path d="M59.3260613,5.46168731 L59.3260613,5.3932783 C87.1913325,1.79775943 115.056604,0 142.921875,0 C170.787146,0 198.652417,1.79775943 226.517689,5.3932783 L226.517689,5.46168731 L285.075226,58.1871308 C285.896081,58.9262321 285.962356,60.1908266 285.223255,61.0116817 L252.919444,96.888698 L252.919444,96.888698 C252.180343,97.7095531 250.915748,97.7758277 250.094893,97.0367265 L226.517689,75.8077163 L226.517689,231.259287 L226.517689,231.259287 C226.517689,232.363856 225.622258,233.259287 224.517689,233.259287 L61.3260613,233.259287 L61.3260613,233.259287 C60.2214918,233.259287 59.3260613,232.363856 59.3260613,231.259287 L59.3260613,75.8077163 L35.748857,97.0367265 C34.9280019,97.7758277 33.6634074,97.7095531 32.9243061,96.888698 L0.620495493,61.0116817 C-0.118605766,60.1908266 -0.0523311766,58.9262321 0.768523931,58.1871308 L59.3260613,5.46168731 Z" id="path-3"></path>
    </defs>
    <g id="desktop-mocks" stroke="none" stroke-width="1" fill="none" fill-rule="evenodd">
        <g id="Take-action" transform="translate(-727.000000, -2710.000000)">
            <g id="shirt" transform="translate(727.000000, 2710.000000)">
                <mask id="mask-2" fill="white">
                    <use xlink:href="#path-1"></use>
                </mask>
                <use id="Mask" fill="#E9EFEF" xlink:href="#path-1"></use>
                <g mask="url(#mask-2)">
                    <g transform="translate(215.000000, 112.000000)">
                        <g id="Group-12" stroke-width="1" fill="none">
                            <mask id="mask-4" fill="white">
                                <use xlink:href="#path-3"></use>
                            </mask>
                            <use id="Mask" fill="#1A596A" xlink:href="#path-3"></use>
                            <g mask="url(#mask-4)">
                                <g transform="translate(111.910525, -31.011350)">
                                    <circle id="Oval-7" stroke="none" fill="#137E9C" fill-rule="evenodd" cx="31.0113502" cy="31.0113502" r="31.0113502"></circle>
                                    <rect id="Rectangle-25" stroke="none" fill="#FFFFFF" fill-rule="evenodd" x="22.9214328" y="28.3147111" width="16.1798349" height="8.08991745"></rect>
                                    <path d="M0,31.0113502 C0,48.138446 13.8842544,62.0227005 31.0113502,62.0227005 C48.138446,62.0227005 62.0227005,48.138446 62.0227005,31.0113502" id="Combined-Shape-Copy-3" stroke="#114A5A" stroke-width="6" fill="none"></path>
                                </g>
                            </g>
                        </g>
                        <path d="M147.951867,64.7193396 L147.697041,64.9683915 L147.651239,64.9241947 L143.078938,69.392675 L138.295323,64.7193396 L122.728016,64.7193396 L113.258844,73.9734277 L113.258844,87.5665478 L143.124116,116.748973 L172.988971,87.5665478 L172.988971,73.9734277 L163.519174,64.7193396 L147.951867,64.7193396 Z M144.44634,70.7682205 L148.737998,66.5743465 L161.552806,66.5743465 L150.853639,77.0297065 L144.44634,70.7682205 Z M124.47495,66.5743465 L137.472134,66.5743465 L141.716325,70.7244426 L135.219295,77.0734844 L124.47495,66.5743465 Z M152.193351,78.3413656 L163.483782,67.3066302 L170.086574,73.7593562 L158.79656,84.7936728 L152.193351,78.3413656 Z M116.050483,73.8682771 L122.6539,67.4157605 L133.878958,78.3838867 L127.276166,84.8368222 L116.050483,73.8682771 Z M136.56317,78.3838867 L143.056662,72.034426 L149.511637,78.3413656 L143.013358,84.6895695 L136.56317,78.3838867 Z M160.137521,86.1036562 L171.092763,75.3988254 L171.092763,86.7990743 L165.971253,91.8035712 L160.137521,86.1036562 Z M115.153595,86.7990743 L115.153595,75.6133158 L125.934164,86.1455488 L120.210773,91.7392659 L115.153595,86.7990743 Z M144.354735,86.0008097 L150.853639,79.6523964 L157.455182,86.1036562 L150.958152,92.4531168 L144.354735,86.0008097 Z M128.616711,86.1455488 L135.219295,79.6944985 L141.673021,86.0008097 L135.070021,92.4531168 L128.616711,86.1455488 Z M136.411399,93.7631002 L143.013358,87.3118404 L149.616774,93.7631002 L143.013358,100.216455 L136.411399,93.7631002 Z M152.298488,93.7631002 L158.79656,87.4155247 L164.628835,93.1135546 L158.132845,99.4640625 L152.298488,93.7631002 Z M121.550277,93.0505061 L127.276166,87.4584647 L133.728436,93.7631002 L128.005253,99.3563984 L121.550277,93.0505061 Z M144.354735,101.527695 L150.958152,95.0743404 L156.790219,100.774046 L150.186802,107.226563 L144.354735,101.527695 Z M129.347255,100.668476 L135.070021,95.0743404 L141.673021,101.527695 L135.950671,107.119317 L129.347255,100.668476 Z M137.291008,108.430558 L143.013358,102.837469 L148.84709,108.536755 L143.125781,114.129844 L137.291008,108.430558 L137.291008,108.430558 Z" id="OneLove_Heart_White" fill="#FFFFFE"></path>
                    </g>
                </g>
            </g>
        </g>
    </g>
</svg>