<?xml version="1.0" encoding="UTF-8"?>
<svg width="231px" height="335px" viewBox="0 0 231 335" version="1.1" xmlns="http://www.w3.org/2000/svg" xmlns:xlink="http://www.w3.org/1999/xlink">
    <!-- Generator: Sketch 46.1 (44463) - http://www.bohemiancoding.com/sketch -->
    <title>team one love sign</title>
    <desc>Created with Sketch.</desc>
    <defs>
        <rect id="path-1" x="0" y="0" width="253" height="345"></rect>
        <polygon id="path-3" points="0 80.5167281 0 0.81051087 230.207273 0.81051087 230.207273 80.5167281"></polygon>
    </defs>
    <g id="desktop-mocks" stroke="none" stroke-width="1" fill="none" fill-rule="evenodd">
        <g id="Home" transform="translate(-896.000000, -3885.000000)">
            <g id="Group" transform="translate(0.000000, 3621.000000)">
                <g id="team-one-love-sign" transform="translate(885.000000, 254.000000)">
                    <mask id="mask-2" fill="white">
                        <use xlink:href="#path-1"></use>
                    </mask>
                    <g id="Mask"></g>
                    <g mask="url(#mask-2)" id="Group-2">
                        <g transform="translate(11.000000, 9.000000)">
                            <g>
                                <g id="Page-1">
                                    <path d="M102.753737,60.9701039 C102.774828,56.2888247 106.582909,52.5147338 111.260404,52.533487 C115.930869,52.5545844 119.703798,56.3638377 119.689737,61.0404286 L116.863556,225.813487 C116.842465,230.492422 115.698869,234.280578 111.023717,234.259481 C106.348566,234.240727 105.242465,230.443195 105.261212,225.76426 L102.753737,60.9701039 Z" id="Fill-1" fill="#000000"></path>
                                    <g id="Group-5" transform="translate(0.000000, 0.534468)">
                                        <mask id="mask-4" fill="white">
                                            <use xlink:href="#path-3"></use>
                                        </mask>
                                        <g id="Clip-4"></g>
                                        <path d="M11.4579879,79.5555091 C5.10259394,79.5250351 -0.024840404,74.349139 -0.00140606061,67.9917883 L0.181381818,12.2712039 C0.20950303,5.91385325 5.38380606,0.782496104 11.7392,0.810625974 L218.75116,1.77407403 C225.10421,1.79985974 230.233988,6.97575584 230.20821,13.3331065 L230.027766,69.0560351 C229.999644,75.4133857 224.825341,80.5447429 218.469947,80.516613 L11.4579879,79.5555091 Z" id="Fill-3" fill="#000000" mask="url(#mask-4)"></path>
                                    </g>
                                    <path d="M118.258368,184.500553 C120.121398,183.919203 122.828065,182.074352 122.760105,188.560631 C122.689802,195.049255 121.267337,215.795034 122.933519,217.074943 C122.933519,217.074943 115.251741,218.886975 111.81861,219.365183 C108.383135,219.848079 87.7210747,219.055755 89.8934384,201.35269 C92.1806303,182.747125 92.1806303,190.058547 92.1806303,188.731755 C92.1806303,188.731755 109.163499,181.467216 118.258368,184.500553" id="Fill-6" fill="#FF5C00"></path>
                                    <path d="M107.330699,281.922732 C104.591224,309.325914 90.9055677,358.189843 90.9055677,358.189843 L62.8288808,355.449525 C62.8288808,355.449525 74.030497,329.366103 79.2633859,313.660258 C86.7975273,291.055564 89.8721131,263.436719 93.3825778,243.049596 C94.7089616,231.422583 94.1488808,207.545012 94.1488808,207.545012 L112.200356,210.332213 C111.523103,212.36694 110.072517,254.521895 107.330699,281.922732" id="Fill-8" fill="#FF5C00"></path>
                                    <path d="M115.1184,192.970692 L124.110158,191.336815 C127.4144,190.739055 130.493673,192.398718 130.971733,195.035893 C131.447451,197.673068 129.148541,200.300867 125.837269,200.898627 L116.843168,202.54188 C113.545956,203.144328 110.461996,201.477633 109.993309,198.838114 C109.512905,196.200938 111.811814,193.566107 115.1184,192.970692" id="Fill-10" fill="#FF5C00"></path>
                                    <path d="M114.528089,203.599563 L122.90821,202.073518 C125.994513,201.515608 128.85819,203.062751 129.308129,205.521771 C129.751038,207.983134 127.609139,210.432777 124.520493,210.988342 L116.138028,212.523764 C113.061099,213.081673 110.188048,211.529842 109.749826,209.070823 C109.304574,206.611803 111.446473,204.152784 114.528089,203.599563" id="Fill-12" fill="#FF5C00"></path>
                                    <path d="M113.445657,213.569023 L120.499394,212.284426 C123.093576,211.815595 125.542465,213.306478 125.957253,215.603751 C126.376727,217.905712 124.605091,220.151413 122.006222,220.620244 L111.859152,222.00564 C109.272,222.474471 109.909414,220.887478 109.501657,218.590205 C109.079838,216.290588 110.853818,214.037855 113.445657,213.569023" id="Fill-14" fill="#FF5C00"></path>
                                    <path d="M33.8466909,37.0569013 L28.5786505,42.3265636 L23.9245899,37.6734143 L23.9245899,27.1364338 L33.8466909,37.0569013 Z M64.0863677,38.2524208 L69.4504889,43.6205377 L63.4770747,49.6028234 L58.1082667,44.2323623 L64.0863677,38.2524208 Z M58.0121859,29.7032844 L68.4006303,19.3116416 L74.4771556,25.3876935 L64.0863677,35.7840247 L58.0121859,29.7032844 Z M56.8732768,45.4677325 L62.2420848,50.8358494 L56.1608727,56.9142455 L50.7967515,51.5461286 L56.8732768,45.4677325 Z M42.2525899,42.9993364 L36.3143273,37.0569013 L42.3908525,30.9785052 L48.3291152,36.9185961 L42.2525899,42.9993364 Z M49.5641051,35.6855701 L43.6281859,29.7454792 L49.6016,23.7655377 L55.5422061,29.7032844 L49.5641051,35.6855701 Z M49.5641051,38.1563104 L55.6382869,44.2323623 L49.5641051,50.3084143 L43.4875798,44.2323623 L49.5641051,38.1563104 Z M62.8537212,37.0147065 L56.8732768,42.9993364 L50.7967515,36.9185961 L56.7795394,30.9409987 L62.8537212,37.0147065 Z M66.6219636,18.6224597 L56.7795394,28.4702584 L50.8811152,22.5723623 L54.829802,18.6224597 L66.6219636,18.6224597 Z M44.4647919,18.6224597 L48.3689535,22.5301675 L42.3908525,28.5101091 L32.503903,18.6224597 L44.4647919,18.6224597 Z M35.0816808,35.8262195 L24.7518222,25.4908364 L30.8283475,19.4124403 L41.1558626,29.7454792 L35.0816808,35.8262195 Z M35.0816808,38.2922714 L41.0199434,44.2323623 L35.751903,49.5020247 L29.8136404,43.5595896 L35.0816808,38.2922714 Z M42.2525899,45.4677325 L48.3291152,51.5461286 L43.0634182,56.8134468 L36.9868929,50.7373948 L42.2525899,45.4677325 Z M49.5641051,52.7814987 L54.9329131,58.1496156 L49.6672162,63.4169338 L44.2984081,58.0488169 L49.5641051,52.7814987 Z M75.4004687,26.9348364 L75.4004687,37.6734143 L70.6901657,42.3851675 L65.323701,37.0147065 L75.4004687,26.9348364 Z M68.4334384,16.8737195 L54.1080242,16.8737195 L53.8736808,17.1104792 L53.831499,17.0659403 L49.6226909,21.2760442 L45.2217212,16.8737195 L30.8963071,16.8737195 L22.1810747,25.5916351 L22.1810747,38.3930701 L49.299297,65.5243299 L50.0304485,65.5243299 L77.1486707,38.3930701 L77.1486707,25.5916351 L68.4334384,16.8737195 Z" id="Fill-16" fill="#FFFFFF"></path>
                                    <path d="M96.7693091,52.634989 C101.404622,52.634989 104.460461,49.1210994 104.460461,44.8688006 C104.460461,40.6211903 101.404622,37.1073006 96.7693091,37.1073006 C92.1316525,37.1073006 89.0781576,40.6563526 89.0781576,44.8688006 C89.0781576,49.1562617 92.0988444,52.634989 96.7693091,52.634989 L96.7693091,52.634989 Z M96.7693091,50.5275929 C93.7111273,50.5275929 91.6067232,48.2068786 91.6067232,44.8688006 C91.6067232,41.5658851 93.7111273,39.2123526 96.7693091,39.2123526 C99.8251475,39.2123526 101.931895,41.5658851 101.931895,44.8688006 C101.931895,48.2068786 99.8251475,50.5275929 96.7693091,50.5275929 L96.7693091,50.5275929 Z M112.149269,37.3862552 L107.445996,37.3862552 L107.445996,39.5288136 L109.833956,39.5288136 L109.833956,50.24395 L107.445996,50.24395 L107.445996,52.3536903 L114.607531,52.3536903 L114.607531,50.24395 L112.254723,50.24395 L112.254723,41.9901773 C113.590481,40.5133591 115.312905,39.3553461 117.173592,39.3553461 C118.401552,39.3553461 119.245188,39.7772942 119.667006,40.6563526 C119.948218,41.1790994 120.053673,41.8471838 120.053673,42.6559175 L120.053673,50.24395 L117.700865,50.24395 L117.700865,52.3536903 L124.864743,52.3536903 L124.864743,50.24395 L122.476784,50.24395 L122.476784,42.1636448 C122.476784,40.9376513 122.230723,39.8827812 121.738602,39.0365409 C121.002764,37.8433656 119.702158,37.1073006 117.771168,37.1073006 C115.629269,37.1073006 113.555329,38.5137942 112.149269,40.1640799 L112.149269,37.3862552 Z M140.950077,45.5720474 C141.053188,45.1852617 141.090683,44.7304955 141.090683,44.1678981 C141.090683,40.4453786 138.702723,37.1073006 134.240824,37.1073006 C129.675814,37.1073006 126.898844,40.7618396 126.898844,44.903963 C126.898844,49.4703786 130.097632,52.634989 134.873552,52.634989 C136.767046,52.634989 138.702723,52.1427162 140.247046,51.1956773 L140.457956,48.8421448 C138.702723,49.8571643 137.191208,50.4924305 135.189915,50.4924305 C131.958319,50.4924305 129.781269,48.874963 129.429754,45.5720474 L140.950077,45.5720474 Z M134.100218,39.1795344 C136.945147,39.1795344 138.456663,41.007976 138.63242,43.6381188 L129.464905,43.6381188 C129.81642,40.7946578 131.817713,39.1795344 134.100218,39.1795344 L134.100218,39.1795344 Z M144.706602,52.3536903 L155.521552,52.3536903 L155.521552,50.24395 L151.37836,50.24395 L151.37836,29.6153786 L150.291006,29.6153786 L144.601147,31.1250149 L145.161228,33.2347552 L148.920097,32.2830279 L148.920097,50.24395 L144.706602,50.24395 L144.706602,52.3536903 Z M166.095127,52.634989 C170.73044,52.634989 173.786279,49.1210994 173.786279,44.8688006 C173.786279,40.6211903 170.73044,37.1073006 166.095127,37.1073006 C161.457471,37.1073006 158.403976,40.6563526 158.403976,44.8688006 C158.403976,49.1562617 161.424663,52.634989 166.095127,52.634989 L166.095127,52.634989 Z M166.095127,50.5275929 C163.036945,50.5275929 160.932541,48.2068786 160.932541,44.8688006 C160.932541,41.5658851 163.036945,39.2123526 166.095127,39.2123526 C169.148622,39.2123526 171.257713,41.5658851 171.257713,44.8688006 C171.257713,48.2068786 169.148622,50.5275929 166.095127,50.5275929 L166.095127,50.5275929 Z M183.197511,52.845963 L184.533269,52.845963 L190.81836,39.5288136 L192.784501,39.5288136 L192.784501,37.3862552 L185.866683,37.3862552 L185.866683,39.4608331 L188.322602,39.4608331 L183.933349,49.3320734 L179.508945,39.4608331 L181.896905,39.4608331 L181.896905,37.3862552 L174.941592,37.3862552 L174.941592,39.5288136 L176.91242,39.5288136 L183.197511,52.845963 Z M207.887935,45.5720474 C207.99339,45.1852617 208.028541,44.7304955 208.028541,44.1678981 C208.028541,40.4453786 205.638238,37.1073006 201.178683,37.1073006 C196.611329,37.1073006 193.839046,40.7618396 193.839046,44.903963 C193.839046,49.4703786 197.035491,52.634989 201.81141,52.634989 C203.707248,52.634989 205.638238,52.1427162 207.184905,51.1956773 L207.395814,48.8421448 C205.638238,49.8571643 204.129067,50.4924305 202.127774,50.4924305 C198.896178,50.4924305 196.716784,48.874963 196.367612,45.5720474 L207.887935,45.5720474 Z M201.038077,39.1795344 C203.883006,39.1795344 205.394521,41.007976 205.567935,43.6381188 L196.402764,43.6381188 C196.754279,40.7946578 198.755572,39.1795344 201.038077,39.1795344 L201.038077,39.1795344 Z" id="Fill-18" fill="#FFFFFF"></path>
                                    <path d="M91.7203798,189.028994 C92.9389657,182.390344 99.0951677,177.066766 104.543653,176.656539 C104.543653,176.656539 104.178077,183.454591 107.529188,183.761675 C110.884986,184.066416 114.611046,183.027955 114.611046,183.027955 L121.735087,181.736325 C124.35739,181.258117 126.850804,182.894338 127.303087,185.376799 C127.750683,187.861604 125.986077,190.264364 123.363774,190.735539 L116.235046,192.043578 C113.622117,192.517097 111.116986,190.878532 110.678764,188.393727 C110.226481,185.908922 111.988743,183.501474 114.611046,183.027955 C114.611046,183.027955 104.039814,192.871065 101.204259,192.338942 C101.204259,192.338942 91.2024808,191.781032 91.7203798,189.028994 Z" id="Fill-20" fill="#FF5C00"></path>
                                </g>
                            </g>
                        </g>
                    </g>
                </g>
            </g>
        </g>
    </g>
</svg>