<?xml version="1.0" encoding="UTF-8"?>
<svg width="288px" height="140px" viewBox="0 0 288 140" version="1.1" xmlns="http://www.w3.org/2000/svg" xmlns:xlink="http://www.w3.org/1999/xlink">
    <!-- Generator: Sketch 45.1 (43504) - http://www.bohemiancoding.com/sketch -->
    <title>thatsnotlove playlist block</title>
    <desc>Created with Sketch.</desc>
    <defs>
        <rect id="path-1" x="0" y="0" width="341" height="171"></rect>
        <polygon id="path-3" points="5.13170983 0.140714022 5.13170983 5.98540395 0.518731846 5.98540395 0.518731846 0.140714022 5.13170983 0.140714022"></polygon>
        <polygon id="path-5" points="3.91662614e-15 23.041142 3.91662614e-15 0.4576 75.981758 0.4576 75.981758 23.041142"></polygon>
    </defs>
    <g id="Mobile-wireframes" stroke="none" stroke-width="1" fill="none" fill-rule="evenodd">
        <g id="thatsnotlove-playlist-block" transform="translate(0.000000, -13.000000)">
            <mask id="mask-2" fill="white">
                <use xlink:href="#path-1"></use>
            </mask>
            <g id="Mask"></g>
            <g id="Group-14" mask="url(#mask-2)">
                <g transform="translate(0.000000, 13.000000)">
                    <g id="Group-12" transform="translate(116.000000, 0.000000)">
                        <path d="M61.4465736,91.0968556 L69.4155327,94.5494264 C68.2888534,97.5619638 66.9288596,102.621141 65.2243341,109.248239 C62.9600956,108.769521 59.1376064,108.230359 55.1821401,108.829965 C57.7606883,101.035086 60.1530685,94.067082 61.4465736,91.0968556" id="Fill-24" fill="#0062A8"></path>
                        <path d="M27.3120598,101.362935 C30.1335935,105.14674 38.605448,118.166413 44.7344866,125.430593 C46.7351886,127.802423 48.8567789,125.904476 49.8891652,123.61606 C51.2793811,120.537034 54.4901753,110.496049 55.1852832,108.830207 C58.6910449,108.017838 62.959612,108.442156 65.2238506,109.247272 C62.6223336,116.974454 60.234789,123.935205 56.7665026,131.993621 C54.202461,137.952207 48.2172796,143.094797 42.5149768,136.199326 C35.3632229,127.553393 30.4031745,120.285586 28.6817246,118.087836 C26.9626925,115.890086 24.8761598,117.826717 21.0415818,119.583225 C15.2014664,122.258484 8.15730308,128.369389 2.16124166,127.433713 C-2.43372396,126.715636 5.63073687,115.998886 11.6461404,109.09737 C17.4221851,102.469063 23.2151541,95.8697688 27.3120598,101.362935" id="Fill-26" fill="#0082CD"></path>
                        <path d="M109.636532,50.2297077 C114.635265,59.9672631 135.504218,53.8829532 137.2027,43.7259153 C137.993309,39.0040169 138.58808,32.9269603 137.896599,27.4386299 L146.532861,29.0585336 C146.120632,29.9724494 144.113886,42.889368 143.983326,43.9435143 C142.504862,56.226978 136.454401,63.1853106 122.438607,65.2657988 C115.92877,66.2329055 108.417978,64.610584 100.800804,65.1267772 C100.800804,65.1267772 108.309179,47.6439062 109.636532,50.2297077" id="Fill-28" fill="#0082CD"></path>
                        <path d="M155.97557,27.1210562 C156.752882,27.5405387 158.209586,27.8306707 156.089205,29.8628037 C153.968824,31.8949366 146.812234,38.0106774 146.928287,38.9548153 C146.928287,38.9548153 143.906079,37.0447796 142.660929,36.0861351 C141.419406,35.1274906 135.523681,30.8879367 142.252326,26.2869267 C144.942092,24.449424 147.793847,23.4944062 147.659661,22.1585901 C147.659661,22.1585901 154.072788,23.2187808 155.97557,27.1210562" id="Fill-30" fill="#0082CD"></path>
                        <path d="M110.699141,85.7141816 C105.901083,86.2545524 101.991554,86.7163459 100.733107,86.8432786 L94.2353586,97.5080476 C95.5905168,97.4427679 101.231167,96.7416155 107.568133,95.9401259 C111.77142,90.7092876 111.112579,86.9593314 110.699141,85.7141816" id="Fill-32" fill="#0062A8"></path>
                        <path d="M84.4507776,101.229474 C72.3921662,103.949462 60.8086459,101.543784 53.3715955,95.768948 C40.8499818,86.0386459 38.837191,70.3388778 44.6724709,54.1120366 C47.7067681,45.6740308 46.8847275,39.4531171 44.5733425,29.2054129 C41.6611425,16.2993742 49.3677739,3.56983254 61.7866325,0.767640928 C74.207909,-2.0333418 86.6303943,6.15442514 89.5413854,19.0616727 C91.8527704,29.3093769 93.7821482,35.2800517 100.144501,41.5976761 C112.378401,53.7481627 117.305809,68.7915071 110.172189,82.9559933 C105.933844,91.363777 96.509389,98.5094865 84.4507776,101.229474" id="Fill-34" fill="#0082CD"></path>
                        <path d="M57.1965024,19.3736855 C55.9235483,19.5791956 54.8258822,20.1546241 53.9857083,20.9621582 C52.6329678,22.2629167 51.9596198,24.1705346 52.3633868,26.1482678 C52.4600975,26.6245678 52.6281323,27.068228 52.8312247,27.4925461 C53.9905438,29.9296549 56.7335001,31.441968 59.5647049,30.9862189 C62.8891341,30.4506836 65.0542442,27.4175953 64.4002383,24.2116366 C63.7462324,21.0044691 60.5209317,18.839359 57.1965024,19.3736855" id="Fill-36" fill="#FFFFFF"></path>
                        <path d="M54.9912574,25.9446918 C54.5681483,24.0721315 55.7443918,22.21166 57.6169521,21.7885509 C59.4895124,21.3666506 61.3499839,22.5416852 61.7718841,24.4154544 C62.1949933,26.2880147 61.0187498,28.1484862 59.1473984,28.5703865 C57.2748381,28.9934956 55.4119488,27.8172521 54.9912574,25.9446918" id="Fill-38" fill="#000000"></path>
                        <path d="M74.1067254,15.5592958 C72.8313535,15.764806 71.7336874,16.3402345 70.8959312,17.1477686 C69.5431908,18.448527 68.867425,20.356145 69.271192,22.3338781 C69.3679027,22.8101782 69.5383552,23.2538384 69.7414476,23.6781564 C70.9007668,26.1152653 73.6437231,27.6275783 76.4749279,27.1718293 C79.7969394,26.636294 81.9620494,23.6032057 81.3080435,20.397247 C80.6540377,17.1900795 77.4311546,15.0237605 74.1067254,15.5592958" id="Fill-40" fill="#FFFFFF"></path>
                        <path d="M71.8990626,22.1303022 C71.4783712,20.2577419 72.652197,18.3972704 74.5247573,17.9741612 C76.3997354,17.5522609 78.2602068,18.7272955 78.6821071,20.6010647 C79.1027985,22.4736251 77.9289728,24.3340965 76.0564125,24.7559968 C74.1850611,25.179106 72.3221718,24.0028625 71.8990626,22.1303022" id="Fill-42" fill="#000000"></path>
                        <path d="M75.665097,39.2334629 C76.2622853,38.7124342 76.7796874,38.1309613 77.2015877,37.5253108 C77.6295324,36.9184513 77.9619753,36.2874142 78.1916632,35.6648393 C78.307716,35.3541563 78.3971733,35.045891 78.4588264,34.7436702 C76.7373765,35.7978165 74.5227022,37.2255077 70.9214387,38.3135027 C68.4069613,39.0436683 65.6821382,39.5042528 63.1156789,39.5344749 C64.5494145,40.8412778 67.8121907,42.5542655 72.4893604,41.0516235 C72.8931274,40.9210641 73.2799701,40.7627004 73.6510973,40.580159 C74.3945606,40.2150762 75.0703263,39.7544917 75.665097,39.2334629" id="Fill-48" fill="#FFFFFF"></path>
                        <path d="M84.1674153,31.6378071 C82.9331454,31.6015406 81.5417207,32.7185488 79.8226886,33.8283037 C79.4358459,34.1015113 78.9776791,34.4109855 78.4578593,34.7446373 C78.3974151,35.0456492 78.3067489,35.3539145 78.1919049,35.6658064 C77.9622171,36.2871724 77.6297742,36.9194184 77.2018295,37.525069 C76.7775114,38.1319284 76.2625271,38.7121924 75.6653387,39.2332212 C75.0705681,39.7542499 74.3948023,40.2148345 73.6513391,40.5799172 C73.2802119,40.7624586 72.8933692,40.9208223 72.4896022,41.0513817 C67.8124325,42.5540237 64.5472385,40.841036 63.1159207,39.5342331 C62.2805823,39.5535753 61.4766748,39.5390687 60.7453004,39.5293976 C58.0470728,39.4302692 56.2422099,39.2320123 55.6123817,40.4396868 C55.0248644,41.504713 55.8819627,43.5489347 57.8052961,45.6415118 C57.8862913,45.7261337 57.9588243,45.8095466 58.0422372,45.8941684 C58.1981832,46.0501144 58.3746802,46.2145225 58.5584304,46.3801395 C59.6899452,47.3750505 61.7982378,48.8631859 64.8651749,49.6368713 C66.6905887,47.8525595 69.5121225,46.2568334 72.895787,45.3090689 C76.2818692,44.3588866 79.5253033,44.2573404 82.0119763,44.8363955 C83.9969628,42.7861293 85.3388233,40.4336423 85.8175411,38.3978828 C85.9408472,37.9445515 86.0327223,37.5129802 86.0967932,37.0971243 C86.1245975,36.9121651 86.1536107,36.7223705 86.1717439,36.5470824 C86.4933069,32.913179 85.33157,31.6523137 84.1674153,31.6378071" id="Fill-50" fill="#000000"></path>
                        <path d="M78.4582219,34.743912 L78.4582219,34.743912 C78.3965689,35.0461328 78.3071115,35.3543981 78.1910587,35.6650811 C78.3071115,35.3543981 78.3965689,35.0461328 78.4582219,34.743912" id="Fill-52" fill="#000000"></path>
                        <path d="M64.8654166,49.6371131 C67.5237511,50.3080433 70.8977446,50.4494827 75.0841076,49.1946618 C77.8584949,48.3230569 80.2037286,46.7043621 82.0122181,44.8366373 C79.525545,44.2575822 76.2833199,44.3591284 72.8960287,45.3093107 C69.5099465,46.2570752 66.6884127,47.8528012 64.8654166,49.6371131" id="Fill-54" fill="#EB0000"></path>
                        <path d="M91.3427425,75.8211638 C86.1082776,79.2688991 79.0701587,77.819448 75.6200056,72.5837742 C72.1734792,67.3481004 73.6229303,60.3099815 78.859813,56.8622462 C84.0942779,53.4145109 91.1323968,54.863962 94.5801321,60.0996358 C98.0266585,65.3353096 96.5772074,72.3734285 91.3427425,75.8211638 M170.935622,14.1004154 L167.826374,9.38093481 C166.177457,6.87975515 162.817971,6.18706499 160.315582,7.83356412 L153.35725,13.8405055 C152.611368,14.3337299 152.106055,15.3806229 152.410694,15.9923179 C152.669395,16.5097199 152.205184,17.1540548 151.687782,17.4949599 L102.636131,49.6971946 C100.834895,50.8831091 98.518674,50.7803541 96.7585399,49.5327864 C89.5100753,44.3889878 79.4050194,44.1786421 71.7854276,50.0006243 C63.8575706,56.0571299 61.2814402,67.2864473 65.822006,76.1705311 C71.6270639,87.5340346 85.7915501,91.0591384 96.1504716,84.2398275 C103.240572,79.5711199 106.565002,71.3495043 105.351283,63.4748381 C105.044226,61.4922694 105.923085,59.5193718 107.598597,58.4168702 L157.194245,25.8555971 C157.658456,25.5497496 158.270151,25.4288613 158.705349,25.71174 C159.760705,26.4008035 160.756825,26.1904578 161.505123,25.6984423 L169.389461,21.6112077 C171.889431,19.9634997 172.580913,16.6015951 170.935622,14.1004154" id="Fill-56" fill="#FFCC00"></path>
                        <path d="M78.8572743,56.8621253 C73.6228094,60.3098606 72.1733583,67.3479795 75.6198847,72.5836533 C79.06762,77.8193271 86.1081567,79.2687782 91.3426216,75.8210429 C96.5770865,72.3733076 98.0265376,65.3351887 94.5800112,60.0995149 C91.1322759,54.8638411 84.094157,53.41439 78.8572743,56.8621253" id="Fill-58" fill="#FFFFFF"></path>
                        <polygon id="Fill-60" fill="#BD8D00" points="155.356984 18.5951646 71.8702912 73.4458289 71.3069516 72.5887306 154.794854 17.7392752"></polygon>
                        <polygon id="Fill-62" fill="#BD8D00" points="156.901091 20.7119193 73.4143979 75.5625836 72.8510583 74.7054853 156.33896 19.8560299"></polygon>
                        <polygon id="Fill-64" fill="#BD8D00" points="158.414613 22.7824948 74.9279199 77.633159 74.3645802 76.7760608 157.852482 21.9266053"></polygon>
                        <path d="M166.843673,27.0596449 L166.260991,25.9547256 C165.852389,25.1798313 165.257618,25.2704976 164.544377,25.5944783 L163.692114,23.9830368 L162.428831,24.6491315 L163.278676,26.260573 C162.622252,26.6619223 162.228156,27.100747 162.62467,27.8647612 L163.214605,28.9684717 C163.734425,29.9645916 164.810331,30.0274536 165.80766,29.5003804 C166.806198,28.9793517 167.363493,28.0533471 166.843673,27.0596449" id="Fill-66" fill="#FFCC00"></path>
                        <g id="Group-70" transform="translate(166.825902, 21.028526)">
                            <mask id="mask-4" fill="white">
                                <use xlink:href="#path-3"></use>
                            </mask>
                            <g id="Clip-69"></g>
                            <path d="M4.93357384,3.21732215 L4.35089207,2.11240277 C3.9422895,1.33750854 3.34751889,1.42817479 2.63427771,1.75215553 L1.78201495,0.140714022 L0.518731846,0.806808749 L1.36857684,2.41825026 C0.712153182,2.81959953 0.31805721,3.25842419 0.714570949,4.02243846 L1.30450602,5.12614896 C1.82432587,6.12226884 2.90023205,6.18513078 3.89756081,5.65805764 C4.89609846,5.13702891 5.45339369,4.21102427 4.93357384,3.21732215" id="Fill-68" fill="#FFCC00" mask="url(#mask-4)"></path>
                        </g>
                        <path d="M155.739475,6.87757916 L156.50228,7.86765463 C157.035398,8.56155367 157.604782,8.37175898 158.253952,7.93051656 L159.368543,9.37392328 L160.500058,8.50352727 L159.390303,7.06012055 C159.968149,6.55238954 160.282459,6.05312072 159.760221,5.36768386 L158.990162,4.38002616 C158.308352,3.48666136 157.23849,3.6075497 156.346334,4.29661321 C155.449343,4.9796323 155.060083,5.98663213 155.739475,6.87757916" id="Fill-71" fill="#FFCC00"></path>
                        <path d="M151.373714,10.4853706 L152.136519,11.4754461 C152.669637,12.1693451 153.239021,11.9795505 153.888191,11.538308 L155.002782,12.9817148 L156.134296,12.1113187 L155.022124,10.667912 C155.59997,10.160181 155.916697,9.66091219 155.392042,8.97547533 L154.624401,7.98781763 C153.942591,7.09445284 152.870311,7.21534117 151.980573,7.90440468 C151.083582,8.58742377 150.691903,9.59442361 151.373714,10.4853706" id="Fill-73" fill="#FFCC00"></path>
                        <path d="M70.0905732,71.4684584 C69.8826452,71.6219866 69.8379165,71.9097008 69.9914447,72.1164199 L75.1521677,79.1738809 C75.2996515,79.379391 75.5897835,79.4277464 75.8001292,79.2742182 C76.0056394,79.1243167 76.0503681,78.8329758 75.8992577,78.6286745 L70.734908,71.5687957 C70.5886331,71.3632855 70.2936656,71.3161391 70.0905732,71.4684584" id="Fill-75" fill="#BD8D00"></path>
                        <path d="M157.984855,22.040603 C157.949797,21.7831109 158.128712,21.5522142 158.386204,21.5219921 L162.114401,21.0734964 C162.364639,21.0384387 162.600372,21.2149357 162.631803,21.4724279 C162.664442,21.7250845 162.487945,21.958399 162.232871,21.9886211 L158.499839,22.4371168 C158.2496,22.4733833 158.015077,22.2932597 157.984855,22.040603" id="Fill-77" fill="#BD8D00"></path>
                        <path d="M156.877518,20.0395384 C156.830371,19.784464 156.995988,19.5438963 157.251063,19.5003765 L166.501438,17.9046504 C166.749259,17.8562951 166.992245,18.0207032 167.039391,18.2757776 C167.08412,18.5260165 166.919712,18.769002 166.669473,18.8125218 L157.413053,20.4082478 C157.165232,20.4566032 156.919829,20.2897773 156.877518,20.0395384" id="Fill-79" fill="#BD8D00"></path>
                        <path d="M155.434836,18.6459377 C155.665733,18.7607816 155.942567,18.6676976 156.056202,18.435592 L157.691822,15.0555541 C157.807874,14.829493 157.718417,14.5502409 157.483894,14.435397 C157.257833,14.3229708 156.976163,14.414846 156.866154,14.6457427 L155.224491,18.0281983 C155.110856,18.2542595 155.206357,18.5359293 155.434836,18.6459377" id="Fill-81" fill="#BD8D00"></path>
                        <path d="M156.964799,20.344177 C157.19086,20.4723187 157.47253,20.3937412 157.597045,20.1664712 L162.11706,11.94002 C162.243993,11.7212121 162.169042,11.4371245 161.941772,11.3101917 C161.720546,11.1856768 161.436459,11.2630453 161.314362,11.4866887 L156.791929,19.7167666 C156.664996,19.9355745 156.742365,20.2220798 156.964799,20.344177" id="Fill-83" fill="#BD8D00"></path>
                        <path d="M142.576307,24.8980406 C142.365961,25.0515688 142.321233,25.339283 142.477178,25.5460021 L146.384289,30.8469556 C146.530564,31.0536746 146.821905,31.10203 147.032251,30.9472929 C147.236552,30.7973914 147.28249,30.5072594 147.128962,30.3017492 L143.218224,24.9983779 C143.071949,24.7928678 142.779399,24.7457213 142.576307,24.8980406" id="Fill-85" fill="#BD8D00"></path>
                        <path d="M154.679284,17.0398153 C154.471356,17.1933435 154.426628,17.4810577 154.580156,17.6877768 L158.487267,22.9887302 C158.633542,23.1954493 158.924883,23.2438046 159.135228,23.0890676 C159.33953,22.939166 159.385467,22.649034 159.234357,22.4435239 L155.323619,17.1401526 C155.177344,16.9346424 154.882377,16.887496 154.679284,17.0398153" id="Fill-87" fill="#BD8D00"></path>
                        <path d="M132.402345,31.6384115 C132.191999,31.7919397 132.14727,32.0796539 132.303216,32.286373 L136.207909,37.5873265 C136.356602,37.7940455 136.647943,37.8424009 136.855871,37.6876638 C137.061381,37.5377623 137.108527,37.2476303 136.954999,37.0421201 L133.044262,31.7387488 C132.897987,31.5332387 132.605437,31.4860922 132.402345,31.6384115" id="Fill-89" fill="#BD8D00"></path>
                        <path d="M122.225965,38.3787824 C122.018037,38.5323106 121.973308,38.8200248 122.126836,39.0267439 L126.033947,44.3276974 C126.18264,44.5344164 126.473981,44.5827718 126.681909,44.4280347 C126.88621,44.2781332 126.934565,43.9880012 126.781037,43.782491 L122.870299,38.4791197 C122.724024,38.2736096 122.429057,38.2264631 122.225965,38.3787824" id="Fill-91" fill="#BD8D00"></path>
                        <path d="M112.052002,45.1191533 C111.844074,45.2726815 111.799346,45.5603957 111.952874,45.7671148 L115.859985,51.0680683 C116.00626,51.2747873 116.297601,51.3231427 116.507946,51.1684056 C116.712248,51.0185041 116.758185,50.7283721 116.607075,50.5228619 L112.696337,45.2194906 C112.550062,45.0139805 112.255095,44.966834 112.052002,45.1191533" id="Fill-93" fill="#BD8D00"></path>
                        <path d="M101.87804,51.8595242 C101.667694,52.0130524 101.622966,52.3007666 101.778912,52.5074857 L105.686023,57.8084392 C105.832297,58.0151582 106.123638,58.0635136 106.333984,57.9087765 C106.538285,57.758875 106.584223,57.468743 106.433112,57.2632328 L102.519957,51.9598615 C102.373682,51.7543514 102.081132,51.7072049 101.87804,51.8595242" id="Fill-95" fill="#BD8D00"></path>
                        <path d="M166.584005,17.0527503 C167.341975,16.7045919 168.234131,17.0382437 168.583498,17.7925869 C168.937701,18.548139 168.605258,19.4402949 167.849706,19.7908711 C167.091736,20.1390295 166.197162,19.8090044 165.842959,19.0534523 C165.500845,18.2966913 165.826035,17.4033265 166.584005,17.0527503" id="Fill-97" fill="#BD8D00"></path>
                        <path d="M161.545379,20.1292376 C162.303349,19.7810792 163.195505,20.114731 163.544872,20.8690742 C163.899075,21.6246263 163.566632,22.5167822 162.81108,22.8673584 C162.05311,23.2155168 161.158536,22.8854916 160.804334,22.1299395 C160.46222,21.3731785 160.787409,20.4798137 161.545379,20.1292376" id="Fill-99" fill="#BD8D00"></path>
                        <path d="M161.361266,10.0527113 C162.091432,9.64894425 163.006556,9.91610747 163.407906,10.6414375 C163.818926,11.3691853 163.551763,12.2831011 162.825224,12.6892859 C162.095058,13.091844 161.179934,12.8307252 160.771331,12.1029774 C160.3724,11.3740208 160.631101,10.4588961 161.361266,10.0527113" id="Fill-101" fill="#BD8D00"></path>
                        <path d="M156.56345,13.4945231 C157.294824,13.090756 158.20874,13.3579193 158.612507,14.0832493 C159.02111,14.810997 158.756364,15.7249129 158.029825,16.1310977 C157.29966,16.5336558 156.382117,16.272537 155.973515,15.5447892 C155.577001,14.8158326 155.835702,13.9007079 156.56345,13.4945231" id="Fill-103" fill="#BD8D00"></path>
                        <path d="M155.238876,134.23066 C152.407672,128.863218 143.296318,126.866142 137.662921,123.782281 C133.960112,121.757401 131.162756,121.242417 131.896548,118.549025 C132.631549,115.855633 138.475291,104.72907 143.058168,94.4862018 C146.710204,86.317777 139.447233,83.2327067 132.968827,83.5760296 C127.652158,83.8564905 118.108024,84.8804147 110.698778,85.7133354 C111.114634,86.9584852 111.771058,90.7096503 107.56777,95.9404885 C116.378112,94.827107 126.544821,93.5215129 128.509257,93.4526066 C131.018899,93.365567 133.657891,94.4245488 132.421203,97.2690513 C128.624101,105.982683 120.653933,125.116888 119.304819,129.64053 C117.347637,136.208393 126.099952,136.909545 134.866774,137.581684 C143.995052,138.280419 157.408822,138.343281 155.238876,134.23066" id="Fill-105" fill="#0082CD"></path>
                        <path d="M54.3372515,77.2141601 C55.4470065,75.2835734 55.689992,79.9184321 57.7039917,83.474967 C62.6108492,92.1414517 69.7722742,90.500997 67.3678052,91.6240496 C64.7517816,92.8462307 72.4608307,95.2458641 76.4211326,91.817471 C81.9481473,87.0266662 86.4476111,78.0906005 88.14851,74.0674367 L94.1457803,79.2716795 C93.205269,79.5170829 90.0706345,88.6659121 83.4302383,96.2129708 C79.8724946,100.256686 76.1467161,102.502791 72.4753373,102.386738 C71.0355573,102.342009 64.1074468,102.118366 58.405144,99.4914625 C46.3102661,93.920928 46.2208087,83.7989477 47.0392227,83.5172779 C47.0392227,83.5172779 53.596206,78.5040386 54.3372515,77.2141601" id="Fill-107" fill="#0062A8"></path>
                        <path d="M55.7350834,74.7102 C50.7726172,80.9419937 55.8559717,87.7975712 60.1172855,90.5985539 C68.7704725,96.2851412 82.6158136,82.7359766 86.7199725,76.4654986 L91.689692,82.6561903 C90.7237942,82.731141 85.6223065,90.2225912 77.740387,96.462847 C68.8647654,103.491295 61.1968183,103.006533 51.8908343,95.4667271 C43.2944648,88.5023501 42.5038551,78.1482642 42.5038551,78.1482642 C42.5038551,78.1482642 57.3308094,72.7058714 55.7350834,74.7102" id="Fill-109" fill="#0082CD"></path>
                        <path d="M81.7000844,65.6212105 C81.7569019,62.880672 84.7815281,63.4984114 84.9701139,65.4640557 C85.2348593,68.1779988 85.0366025,67.7065343 85.3787165,69.4231487 C85.963816,72.3353486 86.4558315,69.6020634 87.3129298,67.44058 C88.4831289,64.5054112 89.3196762,62.2822747 90.1344636,60.310586 C90.8960601,58.4295635 94.0838855,58.9578455 93.2086539,61.3139591 C92.6247633,62.8879253 91.6020479,66.559304 91.1728944,67.9628176 C90.8283626,69.097959 91.8619579,69.4630418 92.4978305,68.3327359 C93.0974367,67.2761718 96.6297938,60.5354383 97.2475332,59.315675 C98.3838835,57.0550631 101.242893,59.0908227 100.256444,60.8630456 C98.9411788,63.1998172 96.835304,67.3499137 95.6373006,69.2974248 C94.6266741,70.9475506 96.0797519,72.1008253 97.4433723,70.0819901 C97.249951,70.373331 100.621527,65.6864902 101.720402,64.2007726 C103.325799,62.0247825 105.875334,64.0146045 104.234879,65.9923377 C103.044129,67.4164023 101.686553,69.7084451 100.316888,71.5072636 C98.7284153,73.5865429 99.5057273,74.5693651 100.938254,73.1187051 C101.493132,72.5626187 103.190404,70.9668927 104.230043,70.0493502 C105.600917,68.8465113 107.515788,71.0841544 106.097768,72.5239345 C98.7900684,79.8824074 92.1146145,81.897616 87.1303884,87.3013245 L81.6287603,82.5528307 C84.9423096,78.7738614 81.5247963,73.7038046 81.7000844,65.6212105" id="Fill-111" fill="#0082CD"></path>
                        <path d="M148.649012,19.7367131 L150.630371,22.6767175 C151.35691,23.7598769 151.094583,25.2153725 150.044063,25.9225693 C148.993543,26.629766 147.548928,26.3251274 146.818762,25.240759 L144.833776,22.3007547 C144.106028,21.2224308 144.370773,19.7633086 145.421293,19.0597385 C146.471813,18.3501239 147.918846,18.6547625 148.649012,19.7367131" id="Fill-113" fill="#0082CD"></path>
                        <path d="M154.417198,25.1643576 L157.094875,27.0574689 C158.076488,27.7549946 158.341234,29.0799308 157.679975,30.0131887 C157.021133,30.9452378 155.685317,31.1362414 154.700077,30.4362979 L152.018774,28.5456044 C151.035952,27.8517053 150.773624,26.5231425 151.437301,25.5923023 C152.096142,24.6590444 153.435585,24.4668319 154.417198,25.1643576" id="Fill-115" fill="#0082CD"></path>
                        <path d="M151.364284,28.4792367 L154.743113,30.8679902 C155.984637,31.7480572 156.422252,33.2688325 155.722309,34.258908 C155.021157,35.2489834 153.442355,35.3384408 152.197205,34.4559559 L148.817167,32.0696202 C147.579271,31.1943887 147.138028,29.6687779 147.844016,28.6823291 C148.542751,27.6898358 150.125179,27.5991696 151.364284,28.4792367" id="Fill-117" fill="#0082CD"></path>
                        <path d="M147.742349,31.6561821 L150.89149,33.8829452 C152.0496,34.703777 152.456994,36.1205883 151.802988,37.0441752 C151.148982,37.9677621 149.67898,38.051175 148.519661,37.2291344 L145.366893,35.0035801 C144.21241,34.1875838 143.801389,32.765937 144.457813,31.8447679 C145.111819,30.9199721 146.585448,30.8365592 147.742349,31.6561821" id="Fill-119" fill="#0082CD"></path>
                        <path d="M144.17711,34.4652643 L146.825774,36.3390335 C147.798925,37.0305148 148.093892,38.292589 147.482197,39.1557317 C146.87292,40.0200833 145.58425,40.1603138 144.608682,39.4676237 L141.955183,37.5962722 C140.982032,36.9084176 140.687064,35.6415078 141.301177,34.7807829 C141.912872,33.9164313 143.201541,33.774992 144.17711,34.4652643" id="Fill-121" fill="#0082CD"></path>
                    </g>
                    <g id="Group-13" transform="translate(0.000000, 3.000000)">
                        <path d="M64.6241,29.9104 C63.4461,29.2934 62.7621,28.8684 62.7751,28.1274 C62.8241,25.6564 63.5201,24.2034 63.6141,23.2384 C62.9821,22.9404 60.9651,23.2244 60.5641,23.2354 C60.5391,26.5804 60.6351,27.8334 60.1861,30.4924 C59.9341,31.9934 61.6641,31.8154 63.2361,32.0444 C64.8291,32.2774 67.0361,32.5584 67.1611,31.9364 C67.2661,31.4174 66.2081,30.7404 64.6241,29.9104" id="Fill-1" fill="#BD8D00"></path>
                        <path d="M54.379,43.8923 C54.164,44.3143 53.949,44.7373 53.735,45.1593 C53.596,45.4343 53.297,45.5963 53.067,45.5203 C39.328,40.2673 33.947,37.4493 22.66,29.2423 C22.506,29.0603 22.914,27.8283 23.506,27.0723 C24.601,25.6763 25.01,25.4083 25.16,25.5863 C37.174,34.5473 39.418,38.0733 54.226,43.2583 C54.451,43.3333 54.52,43.6173 54.379,43.8923" id="Fill-3" fill="#AB8047"></path>
                        <g id="Group-7" transform="translate(0.000000, 13.395000)">
                            <mask id="mask-6" fill="white">
                                <use xlink:href="#path-5"></use>
                            </mask>
                            <g id="Clip-6"></g>
                            <path d="M75.9756,19.1526 C75.8936,19.9826 75.8126,20.8126 75.7306,21.6416 C75.6766,22.1826 75.2916,22.6396 74.8676,22.6606 C46.7406,24.4766 24.4046,19.7976 -0.0004,8.5236 L0.0256,0.4576 C24.1166,12.0766 47.7246,19.1946 75.3176,18.2116 C75.7336,18.1916 76.0286,18.6116 75.9756,19.1526" id="Fill-5" fill="#AB8047" mask="url(#mask-6)"></path>
                        </g>
                        <path d="M54.9903,26.4924 C57.9783,28.7874 65.6683,29.0354 70.4603,21.4194 C72.7993,17.7044 71.7623,14.3914 71.6143,14.0244 C71.5113,13.7724 70.4763,9.2664 70.7553,8.0604 C70.8303,7.7344 69.5003,4.7944 65.2033,6.0544 C59.6033,7.6954 60.8203,15.5474 57.6813,20.3304 C56.1793,22.6184 51.9043,24.3214 54.9903,26.4924" id="Fill-8" fill="#FFCC00"></path>
                        <path d="M66.711,7.511 C66.779,7.383 66.807,7.259 66.795,7.133 C66.786,6.995 66.709,6.871 66.584,6.804 C66.42,6.716 66.204,6.74 65.975,6.872 C65.691,7.03 65.383,7.362 65.193,7.715 L65.186,7.729 C64.975,8.129 64.874,8.493 64.88,8.841 L64.881,8.852 C64.893,9.051 64.932,9.147 64.973,9.22 L64.979,9.233 L64.986,9.247 C65.106,9.435 65.338,9.507 65.527,9.415 C65.682,9.343 65.786,9.174 65.823,9.104 C65.848,9.059 65.887,8.983 65.934,8.839 C65.941,8.816 65.95,8.79 65.959,8.763 C66.002,8.639 66.055,8.485 66.169,8.271 C66.266,8.096 66.397,7.936 66.512,7.795 L66.522,7.781 C66.6,7.683 66.662,7.603 66.711,7.511" id="Fill-10" fill="#BD8D00"></path>
                        <path d="M61.5528,31.387 C60.3748,30.77 59.6908,30.345 59.7048,29.604 C59.7538,27.133 60.4488,25.68 60.5428,24.715 C59.9108,24.417 57.8948,24.701 57.4928,24.712 C57.4688,28.057 57.5638,29.31 57.1158,31.969 C56.8628,33.47 58.5938,33.292 60.1658,33.521 C61.7578,33.754 63.9648,34.035 64.0898,33.413 C64.1958,32.894 63.1368,32.217 61.5528,31.387" id="Fill-12" fill="#FFCC00"></path>
                        <path d="M77.5762,10.5598 C78.4282,12.6038 71.3642,13.8668 71.2882,12.7398 C71.2842,12.7328 70.0452,11.3038 70.1192,10.7938 C70.7112,10.8768 71.2642,10.4588 71.8762,10.5568 C74.5302,10.9838 77.3842,10.1698 77.5762,10.5598" id="Fill-14" fill="#6C2100"></path>
                        <path d="M70.1192,10.7937 C70.0332,9.5027 70.3022,8.2227 70.5492,7.7307 C73.0982,9.9087 78.8872,8.1927 77.3792,9.7957 C76.6102,10.6117 73.3332,11.1797 70.1192,10.7937" id="Fill-16" fill="#A24533"></path>
                        <path d="M77.5762,10.5598 C78.5262,12.6688 71.5142,14.2858 71.4652,13.9978 C71.4622,13.9948 70.2362,12.9938 70.1192,10.7938 C73.3172,12.3498 77.5462,10.7818 77.5762,10.5598" id="Fill-18" fill="#90371F"></path>
                        <path d="M79.8809,0.7073 C79.8809,0.5053 79.7069,0.3303 79.5039,0.3303 C79.3019,0.3303 79.1269,0.5053 79.1269,0.7073 L79.1269,4.3093 C78.9049,4.2013 78.6419,4.1463 78.3389,4.1463 C77.3799,4.1463 76.7919,4.6913 76.7919,5.7213 C76.7919,6.7453 77.3799,7.2853 78.3389,7.2853 C79.2929,7.2853 79.8809,6.7453 79.8809,5.7213 L79.8809,5.5073 L79.8809,0.7073 Z" id="Fill-20" fill="#FFCC00"></path>
                        <path d="M89.0997,0.0002 C89.0807,0.0002 88.9967,0.0042 88.9207,0.0222 L85.2877,1.0112 C85.1297,1.0542 85.0227,1.2022 85.0137,1.3592 C85.0127,1.3702 85.0107,4.9932 85.0107,4.9932 C84.7877,4.8862 84.5237,4.8312 84.2217,4.8312 C83.2627,4.8312 82.6747,5.3762 82.6747,6.4062 C82.6747,7.4302 83.2627,7.9702 84.2217,7.9702 C85.1757,7.9702 85.7637,7.4302 85.7637,6.4062 L85.7637,6.1912 L85.7637,1.6622 L88.7227,0.8552 L88.7227,3.9782 C88.5007,3.8712 88.2377,3.8162 87.9347,3.8162 C86.9757,3.8162 86.3867,4.3612 86.3867,5.3912 C86.3867,6.4152 86.9757,6.9552 87.9347,6.9552 C88.8877,6.9552 89.4767,6.4152 89.4767,5.3912 L89.4767,5.1762 L89.4767,0.3772 C89.4767,0.1752 89.3017,0.0002 89.0997,0.0002" id="Fill-22" fill="#FFCC00"></path>
                        <path d="M67.4063,8.4636 C67.0893,8.5146 66.8163,8.6576 66.6073,8.8586 C66.2713,9.1826 66.1033,9.6566 66.2043,10.1486 C66.2283,10.2666 66.2693,10.3776 66.3203,10.4826 C66.6093,11.0886 67.2913,11.4646 67.9953,11.3516 C68.8223,11.2186 69.3593,10.4646 69.1973,9.6666 C69.0353,8.8696 68.2323,8.3306 67.4063,8.4636" id="Fill-44" fill="#FFFFFF"></path>
                        <path d="M66.8575,10.0979 C66.7525,9.6319 67.0445,9.1699 67.5095,9.0649 C67.9765,8.9589 68.4385,9.2519 68.5445,9.7179 C68.6495,10.1829 68.3565,10.6459 67.8905,10.7509 C67.4255,10.8559 66.9625,10.5639 66.8575,10.0979" id="Fill-46" fill="#000000"></path>
                        <path d="M56.6915,24.3425 C58.0795,25.5775 61.0745,24.4775 63.3795,21.8865 C65.6875,19.2945 66.4315,16.1935 65.0445,14.9585 C63.6565,13.7235 60.6635,14.8235 58.3555,17.4145 C56.0495,20.0065 55.3045,23.1075 56.6915,24.3425" id="Fill-123" fill="#BD8D00"></path>
                    </g>
                </g>
            </g>
        </g>
    </g>
</svg>