<?xml version="1.0" encoding="UTF-8"?>
<svg width="341px" height="162px" viewBox="0 0 341 162" version="1.1" xmlns="http://www.w3.org/2000/svg" xmlns:xlink="http://www.w3.org/1999/xlink">
    <!-- Generator: Sketch 45 (43475) - http://www.bohemiancoding.com/sketch -->
    <title>Group 2</title>
    <desc>Created with Sketch.</desc>
    <defs>
        <rect id="path-1" x="0" y="0" width="341" height="169.458628"></rect>
        <rect id="path-3" x="0" y="0" width="169.625502" height="98.6529061"></rect>
    </defs>
    <g id="Symbols" stroke="none" stroke-width="1" fill="none" fill-rule="evenodd">
        <g id="Escalation-workshop-campaign-card" transform="translate(0.000000, -87.000000)">
            <g id="projector">
                <g id="Group-2" transform="translate(0.000000, 87.000000)">
                    <mask id="mask-2" fill="white">
                        <use xlink:href="#path-1"></use>
                    </mask>
                    <g id="Mask"></g>
                    <g mask="url(#mask-2)">
                        <g transform="translate(-17.000000, 0.000000)">
                            <path d="M358.671875,121.53125 L358.671875,151.390625 C140.083813,128.595538 27.2127191,116.484861 20.0585937,115.058594 C12.9044684,113.632326 65.0286762,81.2317372 176.431217,17.8568263 L358.671875,121.53125 Z" id="Path-2" fill="#00B2F3"></path>
                            <g id="projector" stroke-width="1" fill="none">
                                <g id="OneLove_Heart_White" transform="translate(9.000000, 17.000000)">
                                    <mask id="mask-4" fill="white">
                                        <use xlink:href="#path-3"></use>
                                    </mask>
                                    <use id="Mask" fill="#016096" xlink:href="#path-3"></use>
                                    <path d="M89.7291328,23.2751382 L89.4744516,23.5240482 L89.4286756,23.4798766 L84.8589792,27.9458119 L80.0780888,23.2751382 L64.5196479,23.2751382 L55.0558695,32.5239556 L55.0558695,46.1093337 L84.904131,75.2751382 L114.751976,46.1093337 L114.751976,32.5239556 L105.287574,23.2751382 L89.7291328,23.2751382 Z M86.2256018,29.3205739 L90.514816,25.1290885 L103.322325,25.1290885 L92.6292525,35.5784937 L86.2256018,29.3205739 Z M66.2655874,25.1290885 L79.2553687,25.1290885 L83.4971422,29.276821 L77.0038121,35.6222466 L66.2655874,25.1290885 Z M93.9682015,36.8894058 L105.252201,25.8609551 L111.851232,32.310006 L100.567649,43.338038 L93.9682015,36.8894058 Z M57.8459186,32.4188649 L64.445574,25.9700233 L75.664239,36.9319026 L69.0652079,43.3811628 L57.8459186,32.4188649 Z M78.3469225,36.9319026 L84.8367154,30.5860583 L91.2880148,36.8894058 L84.7934362,43.233994 L78.3469225,36.9319026 Z M101.907846,44.6472753 L112.856849,33.9485414 L112.856849,45.3422973 L107.738256,50.3439439 L101.907846,44.6472753 Z M56.9495407,45.3422973 L56.9495407,34.1629097 L67.7239701,44.6891441 L62.0038388,50.2796753 L56.9495407,45.3422973 Z M86.1340498,44.5444874 L92.6292525,38.1996898 L99.2270352,44.6472753 L92.7337051,50.9931196 L86.1340498,44.5444874 Z M70.4049891,44.6891441 L77.0038121,38.2417679 L83.4538631,44.5444874 L76.8546239,50.9931196 L70.4049891,44.6891441 Z M78.1952374,52.3023569 L84.7934362,45.8547714 L91.3930916,52.3023569 L84.7934362,58.7520359 L78.1952374,52.3023569 Z M94.0732783,52.3023569 L100.567649,45.9583967 L106.396602,51.6531812 L99.9043124,58.0000722 L94.0732783,52.3023569 Z M63.3425797,51.5901687 L69.0652079,46.0013122 L75.5138023,52.3023569 L69.7938791,57.8924694 L63.3425797,51.5901687 Z M86.1340498,60.0625292 L92.7337051,53.6128503 L98.5624505,59.3093096 L91.9627951,65.7581511 L86.1340498,60.0625292 Z M71.1351168,59.2038002 L76.8546239,53.6128503 L83.4538631,60.0625292 L77.7347721,65.650967 L71.1351168,59.2038002 Z M79.0743453,66.9614604 L84.7934362,61.3715572 L90.6238462,67.0675978 L84.9057956,72.6575009 L79.0743453,66.9614604 L79.0743453,66.9614604 Z" fill="#FFFFFE" mask="url(#mask-4)"></path>
                                </g>
                                <rect id="Rectangle-3" fill="#52CBF7" x="0" y="0" width="187.097656" height="17.1895215"></rect>
                                <g id="Group" transform="translate(87.000000, 118.000000)" stroke="#FFFFFF">
                                    <path d="M6.552058,0 L6.552058,26.5565582" id="Line" stroke-width="4" stroke-linecap="square"></path>
                                    <ellipse id="Oval" stroke-width="3" cx="6.552058" cy="35.1264135" rx="6.552058" ry="6.72633451"></ellipse>
                                </g>
                            </g>
                        </g>
                    </g>
                </g>
            </g>
        </g>
    </g>
</svg>