<?xml version="1.0" encoding="UTF-8"?>
<svg width="484px" height="231px" viewBox="0 0 484 231" version="1.1" xmlns="http://www.w3.org/2000/svg" xmlns:xlink="http://www.w3.org/1999/xlink">
    <!-- Generator: Sketch 46.1 (44463) - http://www.bohemiancoding.com/sketch -->
    <title>escalation projector</title>
    <desc>Created with Sketch.</desc>
    <defs>
        <rect id="path-1" x="0" y="0" width="488" height="243"></rect>
        <rect id="path-3" x="0" y="0" width="242.743176" height="141.307696"></rect>
    </defs>
    <g id="desktop-mocks" stroke="none" stroke-width="1" fill="none" fill-rule="evenodd">
        <g id="Take-action" transform="translate(-956.000000, -559.000000)">
            <g id="Group-6" transform="translate(0.000000, 390.000000)">
                <g id="escalation-projector" transform="translate(952.000000, 169.000000)">
                    <mask id="mask-2" fill="white">
                        <use xlink:href="#path-1"></use>
                    </mask>
                    <g id="Mask"></g>
                    <g id="Group-2" mask="url(#mask-2)">
                        <g transform="translate(4.000000, 0.000000)">
                            <path d="M513.278659,174.078003 L513.278659,216.847746 C200.467437,184.196694 38.9428582,166.849695 28.7049218,164.806749 C18.4669853,162.763803 93.0595178,116.354095 252.482519,25.5776243 L513.278659,174.078003 Z" id="Path-2" fill="#00B2F3"></path>
                            <g id="projector" stroke-width="1" fill="none">
                                <g id="OneLove_Heart_White" transform="translate(12.879482, 24.350330)">
                                    <mask id="mask-4" fill="white">
                                        <use xlink:href="#path-3"></use>
                                    </mask>
                                    <use id="Mask" fill="#016096" xlink:href="#path-3"></use>
                                    <path d="M128.407194,33.3386645 L128.042732,33.6951963 L127.977224,33.6319262 L121.437743,40.0288084 L114.596033,33.3386645 L92.3310711,33.3386645 L78.7878974,46.5864149 L78.7878974,66.045735 L121.502358,107.822027 L164.216223,66.045735 L164.216223,46.5864149 L150.672156,33.3386645 L128.407194,33.3386645 Z M123.393453,41.9979795 L129.531549,35.9942118 L147.859781,35.9942118 L132.557421,50.9616509 L123.393453,41.9979795 Z M94.8296039,35.9942118 L113.418677,35.9942118 L119.488882,41.9353091 L110.196579,51.0243213 L94.8296039,35.9942118 Z M134.473528,52.8393651 L150.621536,37.0425172 L160.065103,46.2799595 L143.917691,62.0762076 L134.473528,52.8393651 Z M82.7806071,46.4358859 L92.2250673,37.1987435 L108.279578,52.9002364 L98.8360108,62.1379785 L82.7806071,46.4358859 Z M112.118641,52.9002364 L121.405883,43.8106244 L130.638037,52.8393651 L121.343948,61.9271779 L112.118641,52.9002364 Z M145.835585,63.9515229 L161.504194,48.6269523 L161.504194,64.9470533 L154.179214,72.1112736 L145.835585,63.9515229 Z M81.4978423,64.9470533 L81.4978423,48.9340074 L96.9166278,64.0114946 L88.7308135,72.019217 L81.4978423,64.9470533 Z M123.262438,63.8042924 L132.557421,54.7161797 L141.999201,63.9515229 L132.706898,73.0411349 L123.262438,63.8042924 Z M100.753309,64.0114946 L110.196579,54.7764513 L119.426947,63.8042924 L109.983082,73.0411349 L100.753309,64.0114946 Z M111.901572,74.9164502 L121.343948,65.681107 L130.788408,74.9164502 L121.343948,84.1547921 L111.901572,74.9164502 Z M134.623899,74.9164502 L143.917691,65.829537 L152.259235,73.9865889 L142.968421,83.0777002 L134.623899,74.9164502 Z M90.6466234,73.8963315 L98.8360108,65.891008 L108.064295,74.9164502 L99.8787783,82.9235729 L90.6466234,73.8963315 Z M123.262438,86.0319065 L132.706898,76.7935647 L141.048144,84.9530155 L131.603684,94.1901579 L123.262438,86.0319065 Z M101.798161,84.8018868 L109.983082,76.7935647 L119.426947,86.0319065 L111.242621,94.0366303 L101.798161,84.8018868 Z M113.159622,95.9137448 L121.343948,87.906922 L129.687577,96.0657731 L121.50474,104.072596 L113.159622,95.9137448 L113.159622,95.9137448 Z" fill="#FFFFFE" mask="url(#mask-4)"></path>
                                </g>
                                <rect id="Rectangle-3" fill="#52CBF7" x="0" y="0" width="267.746765" height="24.6217955"></rect>
                                <g id="Group" transform="translate(124.501659, 169.019938)" stroke="#FFFFFF">
                                    <path d="M9.37634585,0 L9.37634585,38.0388799" id="Line" stroke-width="4" stroke-linecap="square"></path>
                                    <ellipse id="Oval" stroke-width="3" cx="9.37634585" cy="50.3141038" rx="9.37634585" ry="9.63461561"></ellipse>
                                </g>
                            </g>
                        </g>
                    </g>
                </g>
            </g>
        </g>
    </g>
</svg>