<?xml version="1.0" encoding="UTF-8"?>
<svg width="341px" height="140px" viewBox="0 0 341 140" version="1.1" xmlns="http://www.w3.org/2000/svg" xmlns:xlink="http://www.w3.org/1999/xlink">
    <!-- Generator: Sketch 45 (43475) - http://www.bohemiancoding.com/sketch -->
    <title>Group</title>
    <desc>Created with Sketch.</desc>
    <defs>
        <rect id="path-1" x="0" y="0" width="341" height="155"></rect>
        <polygon id="path-3" points="414.9819 56.8881727 414.9819 73.2989 398.58438 73.2989 398.58438 56.8881727 414.9819 56.8881727"></polygon>
    </defs>
    <g id="Symbols" stroke="none" stroke-width="1" fill="none" fill-rule="evenodd">
        <g id="stories-campaign-card" transform="translate(0.000000, -96.000000)">
            <g id="Group-5">
                <g id="Group" transform="translate(0.000000, 87.000000)">
                    <mask id="mask-2" fill="white">
                        <use xlink:href="#path-1"></use>
                    </mask>
                    <g id="Mask"></g>
                    <g mask="url(#mask-2)">
                        <g transform="translate(-108.000000, 9.000000)">
                            <g id="Group-5" transform="translate(232.000000, 10.000000)">
                                <g id="Group-4" fill="#F54F4F">
                                    <rect id="Rectangle-9" transform="translate(71.823298, 52.299618) scale(-1, 1) translate(-71.823298, -52.299618) " x="0" y="0" width="143.646597" height="104.599237" rx="2"></rect>
                                    <polygon id="Rectangle-9-Copy-2" points="16 94 55.6614815 94 16 129.243956"></polygon>
                                </g>
                                <g id="Group-2" transform="translate(130.000000, 19.000000)" fill="#EC413E">
                                    <rect id="Rectangle-9" x="0.69921875" y="0" width="92.6015625" height="67.4297405" rx="2"></rect>
                                    <polygon id="Rectangle-9-Copy-2" points="82.2669331 61 56.6992188 61 82.2669331 83.7199629"></polygon>
                                </g>
                            </g>
                            <g id="Page-1">
                                <path d="M205.2767,119.013477 L205.2767,25.2498013 C205.2767,18.5807104 209.1408,13.1246455 213.8634,13.1246455 C218.5809,13.1246455 222.4467,18.5807104 222.4467,25.2498013 L222.4467,104.191762" id="Stroke-1" stroke="#FFFFFF" stroke-width="2"></path>
                                <path d="M239.60871,37.5272234 L239.60871,104.192613 C239.60871,110.861704 235.74801,116.31947 231.02201,116.31947 C226.30451,116.31947 222.44551,110.861704 222.44551,104.192613" id="Stroke-3" stroke="#FFFFFF" stroke-width="2"></path>
                                <path d="M170.94792,106.891723 L170.94792,13.1246455 C170.94792,6.45555455 174.81202,0.99948961 179.53462,0.99948961 C184.25212,0.99948961 188.11452,6.45555455 188.11452,13.1246455 L188.11452,119.013477" id="Stroke-5" stroke="#FFFFFF" stroke-width="2"></path>
                                <path d="M205.2767,119.013477 C205.2767,125.684269 201.4177,131.138632 196.6934,131.138632 C191.9793,131.138632 188.1135,125.684269 188.1135,119.013477" id="Stroke-7" stroke="#FFFFFF" stroke-width="2"></path>
                                <path d="M239.60871,37.5272234 C239.60871,30.8581325 243.46941,25.4037688 248.18861,25.4037688 C252.90951,25.4037688 256.77531,30.8581325 256.77531,37.5272234 L256.77531,82.4891455" id="Stroke-9" stroke="#FFFFFF" stroke-width="2"></path>
                                <path d="M273.93749,60.0080143 L273.93749,82.4889753 C273.93749,89.1563649 270.07339,94.6158325 265.35079,94.6158325 C260.63329,94.6158325 256.77429,89.1563649 256.77429,82.4889753" id="Stroke-11" stroke="#FFFFFF" stroke-width="2"></path>
                                <path d="M308.2661,76.4279286 C308.2661,83.0953182 304.402,88.5496818 299.6828,88.5496818 C294.9619,88.5496818 291.0995,83.0953182 291.0995,76.4279286" id="Stroke-13" stroke="#FFFFFF" stroke-width="2"></path>
                                <path d="M282.51705,47.8845597 C287.23795,47.8845597 291.10035,53.3406247 291.10035,60.0080143 L291.10035,76.4272481" id="Stroke-15" stroke="#FFFFFF" stroke-width="2"></path>
                                <path d="M273.93749,60.0080143 C273.93749,53.3406247 277.79819,47.8845597 282.51739,47.8845597" id="Stroke-17" stroke="#FFFFFF" stroke-width="2"></path>
                                <path d="M136.61931,94.459313 L136.61931,37.3722351 C136.61931,30.7048455 140.48341,25.2487805 145.20261,25.2487805 C149.92691,25.2487805 153.78931,30.7048455 153.78931,37.3722351 L153.78931,106.737586" id="Stroke-19" stroke="#FFFFFF" stroke-width="2"></path>
                                <path d="M170.94792,106.737245 C170.94792,113.406336 167.08892,118.862401 162.36802,118.862401 C157.64712,118.862401 153.78812,113.406336 153.78812,106.737245" id="Stroke-21" stroke="#FFFFFF" stroke-width="2"></path>
                                <path d="M102.29393,60.2247597 L102.29393,60.0086948 C102.29393,53.3396039 106.15463,47.8852403 110.87383,47.8852403 C115.59813,47.8852403 119.45713,53.3396039 119.45713,60.0086948 L119.45713,94.4599935" id="Stroke-23" stroke="#FFFFFF" stroke-width="2"></path>
                                <path d="M136.61931,94.459313 C136.61931,101.130105 132.76031,106.581066 128.04281,106.581066 C123.32191,106.581066 119.45611,101.130105 119.45611,94.459313" id="Stroke-25" stroke="#FFFFFF" stroke-width="2"></path>
                                <path d="M308.2661,77.3083506 C308.2661,69.6352539 310.265137,65.1865974 316.8426,65.1865974 L406.646484,65.1865974" id="Stroke-29" stroke="#FFFFFF" stroke-width="2"></path>
                                <mask id="mask-4" fill="white">
                                    <use xlink:href="#path-3"></use>
                                </mask>
                                <g id="Clip-39"></g>
                                <path d="M414.98258,65.0935364 C414.98258,69.6257961 411.31058,73.2989 406.78348,73.2989 C402.25468,73.2989 398.58438,69.6257961 398.58438,65.0935364 C398.58438,60.5612766 402.25468,56.8881727 406.78348,56.8881727 C411.31058,56.8881727 414.98258,60.5612766 414.98258,65.0935364" id="Fill-38" fill="#FFFFFF" mask="url(#mask-4)"></path>
                            </g>
                        </g>
                    </g>
                </g>
            </g>
        </g>
    </g>
</svg>